<?xml version="1.0" encoding="utf-8" standalone="no"?>
<!DOCTYPE svg PUBLIC "-//W3C//DTD SVG 1.1//EN"
  "http://www.w3.org/Graphics/SVG/1.1/DTD/svg11.dtd">
<!-- Created with matplotlib (https://matplotlib.org/) -->
<svg height="345.6pt" version="1.1" viewBox="0 0 460.8 345.6" width="460.8pt" xmlns="http://www.w3.org/2000/svg" xmlns:xlink="http://www.w3.org/1999/xlink">
 <defs>
  <style type="text/css">
*{stroke-linecap:butt;stroke-linejoin:round;}
  </style>
 </defs>
 <g id="figure_1">
  <g id="patch_1">
   <path d="M 0 345.6 
L 460.8 345.6 
L 460.8 0 
L 0 0 
z
" style="fill:#ffffff;"/>
  </g>
  <g id="axes_1">
   <g id="patch_2">
    <path d="M 57.6 307.584 
L 414.72 307.584 
L 414.72 41.472 
L 57.6 41.472 
z
" style="fill:#ffffff;"/>
   </g>
   <g id="matplotlib.axis_1">
    <g id="xtick_1">
     <g id="line2d_1">
      <defs>
       <path d="M 0 0 
L 0 3.5 
" id="m5fa2e6d3e3" style="stroke:#000000;stroke-width:0.8;"/>
      </defs>
      <g>
       <use style="stroke:#000000;stroke-width:0.8;" x="101.472018" xlink:href="#m5fa2e6d3e3" y="307.584"/>
      </g>
     </g>
     <g id="text_1">
      <!-- 5 -->
      <defs>
       <path d="M 50.296875 72.90625 
L 50.296875 64.890625 
L 16.890625 64.890625 
L 16.890625 44 
Q 19.4375 45.75 22.828125 46.625 
Q 26.21875 47.515625 30.421875 47.515625 
Q 42.234375 47.515625 49.0625 40.96875 
Q 55.90625 34.421875 55.90625 23.09375 
Q 55.90625 11.53125 49 5.046875 
Q 42.09375 -1.421875 29.59375 -1.421875 
Q 24.5625 -1.421875 19.28125 -0.1875 
Q 14.015625 1.03125 8.5 3.515625 
L 8.5 17.671875 
L 14.015625 17.671875 
Q 14.453125 10.75 18.421875 7.078125 
Q 22.40625 3.421875 29.59375 3.421875 
Q 37.3125 3.421875 41.453125 8.5 
Q 45.609375 13.578125 45.609375 23.09375 
Q 45.609375 32.5625 41.484375 37.609375 
Q 37.359375 42.671875 29.59375 42.671875 
Q 25.203125 42.671875 21.84375 41.109375 
Q 18.5 39.546875 15.921875 36.28125 
L 11.71875 36.28125 
L 11.71875 72.90625 
z
" id="DejaVuSerif-53"/>
      </defs>
      <g transform="translate(98.290768 322.182437)scale(0.1 -0.1)">
       <use xlink:href="#DejaVuSerif-53"/>
      </g>
     </g>
    </g>
    <g id="xtick_2">
     <g id="line2d_2">
      <g>
       <use style="stroke:#000000;stroke-width:0.8;" x="146.519331" xlink:href="#m5fa2e6d3e3" y="307.584"/>
      </g>
     </g>
     <g id="text_2">
      <!-- 10 -->
      <defs>
       <path d="M 14.203125 0 
L 14.203125 5.171875 
L 26.90625 5.171875 
L 26.90625 65.828125 
L 12.203125 56.296875 
L 12.203125 62.703125 
L 29.984375 74.21875 
L 36.71875 74.21875 
L 36.71875 5.171875 
L 49.421875 5.171875 
L 49.421875 0 
z
" id="DejaVuSerif-49"/>
       <path d="M 31.78125 3.421875 
Q 39.265625 3.421875 42.96875 11.625 
Q 46.6875 19.828125 46.6875 36.375 
Q 46.6875 52.984375 42.96875 61.1875 
Q 39.265625 69.390625 31.78125 69.390625 
Q 24.3125 69.390625 20.59375 61.1875 
Q 16.890625 52.984375 16.890625 36.375 
Q 16.890625 19.828125 20.59375 11.625 
Q 24.3125 3.421875 31.78125 3.421875 
z
M 31.78125 -1.421875 
Q 19.921875 -1.421875 13.25 8.53125 
Q 6.59375 18.5 6.59375 36.375 
Q 6.59375 54.296875 13.25 64.25 
Q 19.921875 74.21875 31.78125 74.21875 
Q 43.703125 74.21875 50.34375 64.25 
Q 56.984375 54.296875 56.984375 36.375 
Q 56.984375 18.5 50.34375 8.53125 
Q 43.703125 -1.421875 31.78125 -1.421875 
z
" id="DejaVuSerif-48"/>
      </defs>
      <g transform="translate(140.156831 322.182437)scale(0.1 -0.1)">
       <use xlink:href="#DejaVuSerif-49"/>
       <use x="63.623047" xlink:href="#DejaVuSerif-48"/>
      </g>
     </g>
    </g>
    <g id="xtick_3">
     <g id="line2d_3">
      <g>
       <use style="stroke:#000000;stroke-width:0.8;" x="191.566645" xlink:href="#m5fa2e6d3e3" y="307.584"/>
      </g>
     </g>
     <g id="text_3">
      <!-- 15 -->
      <g transform="translate(185.204145 322.182437)scale(0.1 -0.1)">
       <use xlink:href="#DejaVuSerif-49"/>
       <use x="63.623047" xlink:href="#DejaVuSerif-53"/>
      </g>
     </g>
    </g>
    <g id="xtick_4">
     <g id="line2d_4">
      <g>
       <use style="stroke:#000000;stroke-width:0.8;" x="236.613959" xlink:href="#m5fa2e6d3e3" y="307.584"/>
      </g>
     </g>
     <g id="text_4">
      <!-- 20 -->
      <defs>
       <path d="M 12.796875 55.515625 
L 7.328125 55.515625 
L 7.328125 68.5 
Q 12.546875 71.296875 17.84375 72.75 
Q 23.140625 74.21875 28.21875 74.21875 
Q 39.59375 74.21875 46.1875 68.703125 
Q 52.78125 63.1875 52.78125 53.71875 
Q 52.78125 43.015625 37.84375 28.125 
Q 36.671875 27 36.078125 26.421875 
L 17.671875 8.015625 
L 48.09375 8.015625 
L 48.09375 17 
L 53.8125 17 
L 53.8125 0 
L 6.78125 0 
L 6.78125 5.328125 
L 28.90625 27.390625 
Q 36.234375 34.71875 39.359375 40.84375 
Q 42.484375 46.96875 42.484375 53.71875 
Q 42.484375 61.078125 38.640625 65.234375 
Q 34.8125 69.390625 28.078125 69.390625 
Q 21.09375 69.390625 17.28125 65.921875 
Q 13.484375 62.453125 12.796875 55.515625 
z
" id="DejaVuSerif-50"/>
      </defs>
      <g transform="translate(230.251459 322.182437)scale(0.1 -0.1)">
       <use xlink:href="#DejaVuSerif-50"/>
       <use x="63.623047" xlink:href="#DejaVuSerif-48"/>
      </g>
     </g>
    </g>
    <g id="xtick_5">
     <g id="line2d_5">
      <g>
       <use style="stroke:#000000;stroke-width:0.8;" x="281.661272" xlink:href="#m5fa2e6d3e3" y="307.584"/>
      </g>
     </g>
     <g id="text_5">
      <!-- 25 -->
      <g transform="translate(275.298772 322.182437)scale(0.1 -0.1)">
       <use xlink:href="#DejaVuSerif-50"/>
       <use x="63.623047" xlink:href="#DejaVuSerif-53"/>
      </g>
     </g>
    </g>
    <g id="xtick_6">
     <g id="line2d_6">
      <g>
       <use style="stroke:#000000;stroke-width:0.8;" x="326.708586" xlink:href="#m5fa2e6d3e3" y="307.584"/>
      </g>
     </g>
     <g id="text_6">
      <!-- 30 -->
      <defs>
       <path d="M 9.71875 69.828125 
Q 15.4375 71.96875 20.671875 73.09375 
Q 25.921875 74.21875 30.515625 74.21875 
Q 41.21875 74.21875 47.21875 69.59375 
Q 53.21875 64.984375 53.21875 56.78125 
Q 53.21875 50.203125 49.0625 45.78125 
Q 44.921875 41.359375 37.3125 39.796875 
Q 46.296875 38.53125 51.25 33.28125 
Q 56.203125 28.03125 56.203125 19.671875 
Q 56.203125 9.46875 49.34375 4.015625 
Q 42.484375 -1.421875 29.59375 -1.421875 
Q 23.875 -1.421875 18.421875 -0.1875 
Q 12.984375 1.03125 7.625 3.515625 
L 7.625 17.671875 
L 13.09375 17.671875 
Q 13.578125 10.640625 17.828125 7.03125 
Q 22.078125 3.421875 29.78125 3.421875 
Q 37.25 3.421875 41.578125 7.734375 
Q 45.90625 12.0625 45.90625 19.578125 
Q 45.90625 28.171875 41.453125 32.59375 
Q 37.015625 37.015625 28.421875 37.015625 
L 23.78125 37.015625 
L 23.78125 42 
L 26.21875 42 
Q 34.765625 42 39.03125 45.53125 
Q 43.3125 49.078125 43.3125 56.203125 
Q 43.3125 62.59375 39.796875 65.984375 
Q 36.28125 69.390625 29.6875 69.390625 
Q 23.09375 69.390625 19.453125 66.265625 
Q 15.828125 63.140625 15.1875 56.984375 
L 9.71875 56.984375 
z
" id="DejaVuSerif-51"/>
      </defs>
      <g transform="translate(320.346086 322.182437)scale(0.1 -0.1)">
       <use xlink:href="#DejaVuSerif-51"/>
       <use x="63.623047" xlink:href="#DejaVuSerif-48"/>
      </g>
     </g>
    </g>
    <g id="xtick_7">
     <g id="line2d_7">
      <g>
       <use style="stroke:#000000;stroke-width:0.8;" x="371.7559" xlink:href="#m5fa2e6d3e3" y="307.584"/>
      </g>
     </g>
     <g id="text_7">
      <!-- 35 -->
      <g transform="translate(365.3934 322.182437)scale(0.1 -0.1)">
       <use xlink:href="#DejaVuSerif-51"/>
       <use x="63.623047" xlink:href="#DejaVuSerif-53"/>
      </g>
     </g>
    </g>
    <g id="text_8">
     <!-- Beam electron energy $E_b$, $keV$ -->
     <defs>
      <path d="M 24.703125 5.171875 
L 39.3125 5.171875 
Q 48.09375 5.171875 52.140625 8.984375 
Q 56.203125 12.796875 56.203125 21.09375 
Q 56.203125 29.34375 52.171875 33.125 
Q 48.140625 36.921875 39.3125 36.921875 
L 24.703125 36.921875 
z
M 24.703125 42.09375 
L 37.109375 42.09375 
Q 45.125 42.09375 48.796875 45.171875 
Q 52.484375 48.25 52.484375 54.890625 
Q 52.484375 61.578125 48.796875 64.625 
Q 45.125 67.671875 37.109375 67.671875 
L 24.703125 67.671875 
z
M 5.515625 0 
L 5.515625 5.171875 
L 14.796875 5.171875 
L 14.796875 67.671875 
L 5.515625 67.671875 
L 5.515625 72.90625 
L 41.5 72.90625 
Q 52.546875 72.90625 58.125 68.390625 
Q 63.71875 63.875 63.71875 54.890625 
Q 63.71875 48.390625 59.828125 44.53125 
Q 55.953125 40.671875 48.484375 39.796875 
Q 57.765625 38.625 62.578125 33.859375 
Q 67.390625 29.109375 67.390625 21.09375 
Q 67.390625 10.25 60.546875 5.125 
Q 53.71875 0 39.203125 0 
z
" id="DejaVuSerif-66"/>
      <path d="M 54.203125 25 
L 15.484375 25 
L 15.484375 24.609375 
Q 15.484375 14.109375 19.4375 8.765625 
Q 23.390625 3.421875 31.109375 3.421875 
Q 37.015625 3.421875 40.796875 6.515625 
Q 44.578125 9.625 46.09375 15.71875 
L 53.328125 15.71875 
Q 51.171875 7.171875 45.375 2.875 
Q 39.59375 -1.421875 30.171875 -1.421875 
Q 18.796875 -1.421875 11.890625 6.078125 
Q 4.984375 13.578125 4.984375 25.984375 
Q 4.984375 38.28125 11.765625 45.796875 
Q 18.5625 53.328125 29.59375 53.328125 
Q 41.359375 53.328125 47.65625 46.0625 
Q 53.953125 38.8125 54.203125 25 
z
M 43.609375 30.171875 
Q 43.3125 39.265625 39.765625 43.875 
Q 36.234375 48.484375 29.59375 48.484375 
Q 23.390625 48.484375 19.828125 43.84375 
Q 16.265625 39.203125 15.484375 30.171875 
z
" id="DejaVuSerif-101"/>
      <path d="M 39.796875 16.3125 
L 39.796875 27.296875 
L 28.21875 27.296875 
Q 21.53125 27.296875 18.25 24.40625 
Q 14.984375 21.53125 14.984375 15.578125 
Q 14.984375 10.15625 18.296875 6.984375 
Q 21.625 3.8125 27.296875 3.8125 
Q 32.90625 3.8125 36.34375 7.28125 
Q 39.796875 10.75 39.796875 16.3125 
z
M 48.78125 32.421875 
L 48.78125 5.171875 
L 56.78125 5.171875 
L 56.78125 0 
L 39.796875 0 
L 39.796875 5.609375 
Q 36.8125 2 32.90625 0.28125 
Q 29 -1.421875 23.78125 -1.421875 
Q 15.140625 -1.421875 10.0625 3.171875 
Q 4.984375 7.765625 4.984375 15.578125 
Q 4.984375 23.640625 10.796875 28.078125 
Q 16.609375 32.515625 27.203125 32.515625 
L 39.796875 32.515625 
L 39.796875 36.078125 
Q 39.796875 42 36.203125 45.234375 
Q 32.625 48.484375 26.125 48.484375 
Q 20.75 48.484375 17.578125 46.046875 
Q 14.40625 43.609375 13.625 38.8125 
L 8.984375 38.8125 
L 8.984375 49.3125 
Q 13.671875 51.3125 18.09375 52.3125 
Q 22.515625 53.328125 26.703125 53.328125 
Q 37.5 53.328125 43.140625 47.96875 
Q 48.78125 42.625 48.78125 32.421875 
z
" id="DejaVuSerif-97"/>
      <path d="M 51.8125 41.796875 
Q 54.390625 47.515625 58.421875 50.421875 
Q 62.453125 53.328125 67.828125 53.328125 
Q 75.984375 53.328125 79.984375 48.265625 
Q 83.984375 43.21875 83.984375 33.015625 
L 83.984375 5.171875 
L 92.09375 5.171875 
L 92.09375 0 
L 67.1875 0 
L 67.1875 5.171875 
L 75 5.171875 
L 75 31.984375 
Q 75 39.9375 72.65625 43.3125 
Q 70.3125 46.6875 64.890625 46.6875 
Q 58.890625 46.6875 55.734375 42.140625 
Q 52.59375 37.59375 52.59375 28.90625 
L 52.59375 5.171875 
L 60.40625 5.171875 
L 60.40625 0 
L 35.796875 0 
L 35.796875 5.171875 
L 43.609375 5.171875 
L 43.609375 32.328125 
Q 43.609375 40.09375 41.265625 43.390625 
Q 38.921875 46.6875 33.5 46.6875 
Q 27.484375 46.6875 24.328125 42.140625 
Q 21.1875 37.59375 21.1875 28.90625 
L 21.1875 5.171875 
L 29 5.171875 
L 29 0 
L 4.109375 0 
L 4.109375 5.171875 
L 12.203125 5.171875 
L 12.203125 46.78125 
L 3.609375 46.78125 
L 3.609375 51.90625 
L 21.1875 51.90625 
L 21.1875 42.671875 
Q 23.6875 47.859375 27.53125 50.59375 
Q 31.390625 53.328125 36.28125 53.328125 
Q 42.328125 53.328125 46.375 50.3125 
Q 50.4375 47.3125 51.8125 41.796875 
z
" id="DejaVuSerif-109"/>
      <path id="DejaVuSerif-32"/>
      <path d="M 20.515625 5.171875 
L 29 5.171875 
L 29 0 
L 2.875 0 
L 2.875 5.171875 
L 11.53125 5.171875 
L 11.53125 70.796875 
L 2.875 70.796875 
L 2.875 75.984375 
L 20.515625 75.984375 
z
" id="DejaVuSerif-108"/>
      <path d="M 51.421875 15.578125 
Q 49.515625 7.28125 44.09375 2.921875 
Q 38.671875 -1.421875 30.078125 -1.421875 
Q 18.75 -1.421875 11.859375 6.078125 
Q 4.984375 13.578125 4.984375 25.984375 
Q 4.984375 38.421875 11.859375 45.875 
Q 18.75 53.328125 30.078125 53.328125 
Q 35.015625 53.328125 39.890625 52.171875 
Q 44.78125 51.03125 49.703125 48.6875 
L 49.703125 35.40625 
L 44.484375 35.40625 
Q 43.453125 42.234375 40.015625 45.359375 
Q 36.578125 48.484375 30.171875 48.484375 
Q 22.90625 48.484375 19.1875 42.84375 
Q 15.484375 37.203125 15.484375 25.984375 
Q 15.484375 14.75 19.171875 9.078125 
Q 22.859375 3.421875 30.171875 3.421875 
Q 35.984375 3.421875 39.453125 6.4375 
Q 42.921875 9.46875 44.1875 15.578125 
z
" id="DejaVuSerif-99"/>
      <path d="M 10.796875 46.6875 
L 2.875 46.6875 
L 2.875 51.90625 
L 10.796875 51.90625 
L 10.796875 68.015625 
L 19.828125 68.015625 
L 19.828125 51.90625 
L 36.71875 51.90625 
L 36.71875 46.6875 
L 19.828125 46.6875 
L 19.828125 13.71875 
Q 19.828125 7.125 21.09375 5.265625 
Q 22.359375 3.421875 25.78125 3.421875 
Q 29.296875 3.421875 30.90625 5.484375 
Q 32.515625 7.5625 32.625 12.203125 
L 39.40625 12.203125 
Q 39.015625 5.125 35.546875 1.84375 
Q 32.078125 -1.421875 25 -1.421875 
Q 17.234375 -1.421875 14.015625 2.015625 
Q 10.796875 5.46875 10.796875 13.71875 
z
" id="DejaVuSerif-116"/>
      <path d="M 47.796875 52 
L 47.796875 39.015625 
L 42.625 39.015625 
Q 42.390625 42.875 40.484375 44.78125 
Q 38.578125 46.6875 34.90625 46.6875 
Q 28.265625 46.6875 24.71875 42.09375 
Q 21.1875 37.5 21.1875 28.90625 
L 21.1875 5.171875 
L 31.59375 5.171875 
L 31.59375 0 
L 4.109375 0 
L 4.109375 5.171875 
L 12.203125 5.171875 
L 12.203125 46.78125 
L 3.609375 46.78125 
L 3.609375 51.90625 
L 21.1875 51.90625 
L 21.1875 42.671875 
Q 23.828125 48.09375 27.96875 50.703125 
Q 32.125 53.328125 38.09375 53.328125 
Q 40.28125 53.328125 42.703125 52.984375 
Q 45.125 52.640625 47.796875 52 
z
" id="DejaVuSerif-114"/>
      <path d="M 30.078125 3.421875 
Q 37.3125 3.421875 40.984375 9.125 
Q 44.671875 14.84375 44.671875 25.984375 
Q 44.671875 37.109375 40.984375 42.796875 
Q 37.3125 48.484375 30.078125 48.484375 
Q 22.859375 48.484375 19.171875 42.796875 
Q 15.484375 37.109375 15.484375 25.984375 
Q 15.484375 14.84375 19.1875 9.125 
Q 22.90625 3.421875 30.078125 3.421875 
z
M 30.078125 -1.421875 
Q 18.75 -1.421875 11.859375 6.078125 
Q 4.984375 13.578125 4.984375 25.984375 
Q 4.984375 38.375 11.84375 45.84375 
Q 18.703125 53.328125 30.078125 53.328125 
Q 41.453125 53.328125 48.3125 45.84375 
Q 55.171875 38.375 55.171875 25.984375 
Q 55.171875 13.578125 48.3125 6.078125 
Q 41.453125 -1.421875 30.078125 -1.421875 
z
" id="DejaVuSerif-111"/>
      <path d="M 4.109375 0 
L 4.109375 5.171875 
L 12.203125 5.171875 
L 12.203125 46.6875 
L 3.609375 46.6875 
L 3.609375 51.90625 
L 21.1875 51.90625 
L 21.1875 42.671875 
Q 23.6875 47.953125 27.65625 50.640625 
Q 31.640625 53.328125 36.921875 53.328125 
Q 45.515625 53.328125 49.5625 48.390625 
Q 53.609375 43.453125 53.609375 33.015625 
L 53.609375 5.171875 
L 61.625 5.171875 
L 61.625 0 
L 36.8125 0 
L 36.8125 5.171875 
L 44.578125 5.171875 
L 44.578125 30.171875 
Q 44.578125 39.703125 42.234375 43.234375 
Q 39.890625 46.78125 33.984375 46.78125 
Q 27.734375 46.78125 24.453125 42.203125 
Q 21.1875 37.640625 21.1875 28.90625 
L 21.1875 5.171875 
L 29 5.171875 
L 29 0 
z
" id="DejaVuSerif-110"/>
      <path d="M 52.484375 46.6875 
L 52.484375 1.125 
Q 52.484375 -10.0625 46.328125 -16.140625 
Q 40.1875 -22.21875 28.8125 -22.21875 
Q 23.6875 -22.21875 19 -21.28125 
Q 14.3125 -20.359375 10.015625 -18.5 
L 10.015625 -7.625 
L 14.703125 -7.625 
Q 15.578125 -12.703125 18.84375 -15.046875 
Q 22.125 -17.390625 28.21875 -17.390625 
Q 36.140625 -17.390625 39.8125 -12.921875 
Q 43.5 -8.453125 43.5 1.125 
L 43.5 8.109375 
Q 40.875 3.21875 36.796875 0.890625 
Q 32.71875 -1.421875 26.703125 -1.421875 
Q 17.140625 -1.421875 11.0625 6.171875 
Q 4.984375 13.765625 4.984375 25.984375 
Q 4.984375 38.1875 11.03125 45.75 
Q 17.09375 53.328125 26.703125 53.328125 
Q 32.71875 53.328125 36.796875 51 
Q 40.875 48.6875 43.5 43.796875 
L 43.5 51.90625 
L 61.078125 51.90625 
L 61.078125 46.6875 
z
M 43.5 28.515625 
Q 43.5 37.84375 39.90625 42.765625 
Q 36.328125 47.703125 29.5 47.703125 
Q 22.5625 47.703125 19.015625 42.234375 
Q 15.484375 36.765625 15.484375 25.984375 
Q 15.484375 15.234375 19.015625 9.71875 
Q 22.5625 4.203125 29.5 4.203125 
Q 36.328125 4.203125 39.90625 9.109375 
Q 43.5 14.015625 43.5 23.390625 
z
" id="DejaVuSerif-103"/>
      <path d="M 21.578125 -9.515625 
L 25 -0.875 
L 5.609375 46.6875 
L -0.296875 46.6875 
L -0.296875 51.90625 
L 23.578125 51.90625 
L 23.578125 46.6875 
L 15.28125 46.6875 
L 29.890625 10.984375 
L 44.484375 46.6875 
L 36.71875 46.6875 
L 36.71875 51.90625 
L 56.203125 51.90625 
L 56.203125 46.6875 
L 50.390625 46.6875 
L 26.609375 -11.71875 
Q 24.171875 -17.78125 21.1875 -20 
Q 18.21875 -22.21875 12.796875 -22.21875 
Q 10.5 -22.21875 8.078125 -21.828125 
Q 5.671875 -21.4375 3.21875 -20.703125 
L 3.21875 -10.796875 
L 7.8125 -10.796875 
Q 8.109375 -14.109375 9.5 -15.546875 
Q 10.890625 -17 13.8125 -17 
Q 16.5 -17 18.140625 -15.5 
Q 19.78125 -14.015625 21.578125 -9.515625 
z
" id="DejaVuSerif-121"/>
      <path d="M -1.515625 0 
L -0.53125 5.171875 
L 8.734375 5.171875 
L 20.90625 67.671875 
L 11.625 67.671875 
L 12.640625 72.90625 
L 71.34375 72.90625 
L 68.21875 56.6875 
L 62.203125 56.6875 
L 64.15625 66.890625 
L 30.671875 66.890625 
L 25.921875 42.484375 
L 49.8125 42.484375 
L 51.5625 51.609375 
L 57.5625 51.609375 
L 52.875 27.390625 
L 46.875 27.390625 
L 48.640625 36.53125 
L 24.75 36.53125 
L 18.84375 6 
L 53.125 6 
L 55.078125 16.21875 
L 61.078125 16.21875 
L 57.953125 0 
z
" id="DejaVuSerif-Italic-69"/>
      <path d="M 18.015625 70.796875 
L 9.375 70.796875 
L 10.40625 75.984375 
L 28.03125 75.984375 
L 21.78125 43.796875 
Q 25.34375 48.6875 29.875 51 
Q 34.421875 53.328125 40.4375 53.328125 
Q 50 53.328125 54.59375 45.75 
Q 57.625 40.765625 57.625 33.796875 
Q 57.625 30.125 56.78125 25.984375 
Q 54.390625 13.765625 46.875 6.171875 
Q 39.359375 -1.421875 29.78125 -1.421875 
Q 23.78125 -1.421875 20.140625 0.890625 
Q 16.5 3.21875 14.84375 8.109375 
L 13.28125 0 
L 4.296875 0 
z
M 17.828125 23.390625 
Q 17.046875 19.53125 17.046875 16.453125 
Q 17.046875 12.015625 18.609375 9.078125 
Q 21.234375 4.203125 28.078125 4.203125 
Q 34.96875 4.203125 39.578125 9.71875 
Q 44.1875 15.234375 46.296875 25.984375 
Q 47.265625 30.90625 47.265625 34.765625 
Q 47.265625 39.265625 45.90625 42.234375 
Q 43.453125 47.703125 36.53125 47.703125 
Q 29.6875 47.703125 25.140625 42.765625 
Q 20.609375 37.84375 18.796875 28.515625 
z
" id="DejaVuSerif-Italic-98"/>
      <path d="M 3.609375 -9.71875 
Q 8.203125 -6.34375 10.34375 -1.78125 
Q 12.5 2.78125 12.5 9.28125 
L 12.5 11.078125 
L 22.125 11.078125 
Q 21.734375 2.734375 18.1875 -3.25 
Q 14.65625 -9.234375 7.515625 -13.625 
z
" id="DejaVuSerif-44"/>
      <path d="M 33.015625 32.421875 
L 47.40625 5.171875 
L 54.890625 5.171875 
L 53.90625 0 
L 39.5 0 
L 25.34375 26.515625 
L 17 19.921875 
L 13.140625 0 
L 4.15625 0 
L 17.921875 70.796875 
L 9.28125 70.796875 
L 10.25 75.984375 
L 27.875 75.984375 
L 18.265625 26.515625 
L 44.09375 46.6875 
L 36.625 46.6875 
L 37.59375 51.90625 
L 52.203125 51.90625 
L 51.21875 46.6875 
z
" id="DejaVuSerif-Italic-107"/>
      <path d="M 14.65625 19.921875 
Q 14.453125 18.0625 14.453125 16.40625 
Q 14.453125 11.8125 16.109375 8.796875 
Q 19 3.421875 26.703125 3.421875 
Q 32.375 3.421875 35.15625 5.125 
Q 40.140625 8.203125 41.3125 12.15625 
L 47.90625 12.15625 
Q 45.953125 5.953125 38.671875 1.609375 
Q 33.59375 -1.421875 23.53125 -1.421875 
Q 13.484375 -1.421875 8.0625 6.0625 
Q 4.25 11.28125 4.25 18.84375 
Q 4.25 22.171875 4.984375 25.921875 
Q 7.375 38.28125 15.625 45.796875 
Q 23.875 53.328125 35.59375 53.328125 
Q 54.6875 53.328125 54.6875 39.796875 
Q 54.6875 29.890625 44.671875 25.046875 
Q 34.46875 20.125 14.65625 19.921875 
z
M 39.703125 30.859375 
Q 45.171875 34.078125 45.171875 40.140625 
Q 45.171875 48.484375 34.078125 48.484375 
Q 27.546875 48.484375 23 43.5 
Q 18.453125 38.53125 15.671875 25.09375 
Q 31.34375 25.828125 39.703125 30.859375 
z
" id="DejaVuSerif-Italic-101"/>
      <path d="M 23.53125 67.671875 
L 34.234375 11.71875 
L 66.546875 67.671875 
L 58.34375 67.671875 
L 59.375 72.90625 
L 80.765625 72.90625 
L 79.734375 67.671875 
L 72.65625 67.671875 
L 33.5 0 
L 25.09375 0 
L 12.359375 67.671875 
L 5.078125 67.671875 
L 6.109375 72.90625 
L 32.671875 72.90625 
L 31.640625 67.671875 
z
" id="DejaVuSerif-Italic-86"/>
     </defs>
     <g transform="translate(159.71 335.862125)scale(0.1 -0.1)">
      <use transform="translate(0 0.015625)" xlink:href="#DejaVuSerif-66"/>
      <use transform="translate(73.486328 0.015625)" xlink:href="#DejaVuSerif-101"/>
      <use transform="translate(132.666016 0.015625)" xlink:href="#DejaVuSerif-97"/>
      <use transform="translate(192.285156 0.015625)" xlink:href="#DejaVuSerif-109"/>
      <use transform="translate(287.109375 0.015625)" xlink:href="#DejaVuSerif-32"/>
      <use transform="translate(318.896484 0.015625)" xlink:href="#DejaVuSerif-101"/>
      <use transform="translate(378.076172 0.015625)" xlink:href="#DejaVuSerif-108"/>
      <use transform="translate(410.058594 0.015625)" xlink:href="#DejaVuSerif-101"/>
      <use transform="translate(469.238281 0.015625)" xlink:href="#DejaVuSerif-99"/>
      <use transform="translate(525.244141 0.015625)" xlink:href="#DejaVuSerif-116"/>
      <use transform="translate(565.429688 0.015625)" xlink:href="#DejaVuSerif-114"/>
      <use transform="translate(613.232422 0.015625)" xlink:href="#DejaVuSerif-111"/>
      <use transform="translate(673.4375 0.015625)" xlink:href="#DejaVuSerif-110"/>
      <use transform="translate(737.841797 0.015625)" xlink:href="#DejaVuSerif-32"/>
      <use transform="translate(769.628906 0.015625)" xlink:href="#DejaVuSerif-101"/>
      <use transform="translate(828.808594 0.015625)" xlink:href="#DejaVuSerif-110"/>
      <use transform="translate(893.212891 0.015625)" xlink:href="#DejaVuSerif-101"/>
      <use transform="translate(952.392578 0.015625)" xlink:href="#DejaVuSerif-114"/>
      <use transform="translate(1000.195312 0.015625)" xlink:href="#DejaVuSerif-103"/>
      <use transform="translate(1064.208984 0.015625)" xlink:href="#DejaVuSerif-121"/>
      <use transform="translate(1120.703125 0.015625)" xlink:href="#DejaVuSerif-32"/>
      <use transform="translate(1152.490234 0.015625)" xlink:href="#DejaVuSerif-Italic-69"/>
      <use transform="translate(1225.488281 -15.55625)scale(0.7)" xlink:href="#DejaVuSerif-Italic-98"/>
      <use transform="translate(1272.893164 0.015625)" xlink:href="#DejaVuSerif-44"/>
      <use transform="translate(1304.680273 0.015625)" xlink:href="#DejaVuSerif-32"/>
      <use transform="translate(1336.467383 0.015625)" xlink:href="#DejaVuSerif-Italic-107"/>
      <use transform="translate(1397.063086 0.015625)" xlink:href="#DejaVuSerif-Italic-101"/>
      <use transform="translate(1456.242773 0.015625)" xlink:href="#DejaVuSerif-Italic-86"/>
     </g>
    </g>
   </g>
   <g id="matplotlib.axis_2">
    <g id="ytick_1">
     <g id="line2d_8">
      <defs>
       <path d="M 0 0 
L -3.5 0 
" id="m119b182724" style="stroke:#000000;stroke-width:0.8;"/>
      </defs>
      <g>
       <use style="stroke:#000000;stroke-width:0.8;" x="57.6" xlink:href="#m119b182724" y="295.947808"/>
      </g>
     </g>
     <g id="text_9">
      <!-- 0 -->
      <g transform="translate(44.2375 299.747027)scale(0.1 -0.1)">
       <use xlink:href="#DejaVuSerif-48"/>
      </g>
     </g>
    </g>
    <g id="ytick_2">
     <g id="line2d_9">
      <g>
       <use style="stroke:#000000;stroke-width:0.8;" x="57.6" xlink:href="#m119b182724" y="264.055728"/>
      </g>
     </g>
     <g id="text_10">
      <!-- 5 -->
      <g transform="translate(44.2375 267.854947)scale(0.1 -0.1)">
       <use xlink:href="#DejaVuSerif-53"/>
      </g>
     </g>
    </g>
    <g id="ytick_3">
     <g id="line2d_10">
      <g>
       <use style="stroke:#000000;stroke-width:0.8;" x="57.6" xlink:href="#m119b182724" y="232.163648"/>
      </g>
     </g>
     <g id="text_11">
      <!-- 10 -->
      <g transform="translate(37.875 235.962867)scale(0.1 -0.1)">
       <use xlink:href="#DejaVuSerif-49"/>
       <use x="63.623047" xlink:href="#DejaVuSerif-48"/>
      </g>
     </g>
    </g>
    <g id="ytick_4">
     <g id="line2d_11">
      <g>
       <use style="stroke:#000000;stroke-width:0.8;" x="57.6" xlink:href="#m119b182724" y="200.271568"/>
      </g>
     </g>
     <g id="text_12">
      <!-- 15 -->
      <g transform="translate(37.875 204.070787)scale(0.1 -0.1)">
       <use xlink:href="#DejaVuSerif-49"/>
       <use x="63.623047" xlink:href="#DejaVuSerif-53"/>
      </g>
     </g>
    </g>
    <g id="ytick_5">
     <g id="line2d_12">
      <g>
       <use style="stroke:#000000;stroke-width:0.8;" x="57.6" xlink:href="#m119b182724" y="168.379488"/>
      </g>
     </g>
     <g id="text_13">
      <!-- 20 -->
      <g transform="translate(37.875 172.178707)scale(0.1 -0.1)">
       <use xlink:href="#DejaVuSerif-50"/>
       <use x="63.623047" xlink:href="#DejaVuSerif-48"/>
      </g>
     </g>
    </g>
    <g id="ytick_6">
     <g id="line2d_13">
      <g>
       <use style="stroke:#000000;stroke-width:0.8;" x="57.6" xlink:href="#m119b182724" y="136.487408"/>
      </g>
     </g>
     <g id="text_14">
      <!-- 25 -->
      <g transform="translate(37.875 140.286627)scale(0.1 -0.1)">
       <use xlink:href="#DejaVuSerif-50"/>
       <use x="63.623047" xlink:href="#DejaVuSerif-53"/>
      </g>
     </g>
    </g>
    <g id="ytick_7">
     <g id="line2d_14">
      <g>
       <use style="stroke:#000000;stroke-width:0.8;" x="57.6" xlink:href="#m119b182724" y="104.595328"/>
      </g>
     </g>
     <g id="text_15">
      <!-- 30 -->
      <g transform="translate(37.875 108.394547)scale(0.1 -0.1)">
       <use xlink:href="#DejaVuSerif-51"/>
       <use x="63.623047" xlink:href="#DejaVuSerif-48"/>
      </g>
     </g>
    </g>
    <g id="ytick_8">
     <g id="line2d_15">
      <g>
       <use style="stroke:#000000;stroke-width:0.8;" x="57.6" xlink:href="#m119b182724" y="72.703248"/>
      </g>
     </g>
     <g id="text_16">
      <!-- 35 -->
      <g transform="translate(37.875 76.502467)scale(0.1 -0.1)">
       <use xlink:href="#DejaVuSerif-51"/>
       <use x="63.623047" xlink:href="#DejaVuSerif-53"/>
      </g>
     </g>
    </g>
    <g id="text_17">
     <!-- Collection efficiency $I_C / I_B E_B$, ${keV}^{-1}$ -->
     <defs>
      <path d="M 70.515625 19.28125 
Q 67.28125 9.078125 59.6875 3.828125 
Q 52.09375 -1.421875 40.484375 -1.421875 
Q 33.34375 -1.421875 27.234375 1.015625 
Q 21.140625 3.46875 16.40625 8.203125 
Q 10.9375 13.671875 8.265625 20.625 
Q 5.609375 27.59375 5.609375 36.375 
Q 5.609375 53.375 15.421875 63.796875 
Q 25.25 74.21875 41.3125 74.21875 
Q 47.265625 74.21875 54 72.65625 
Q 60.75 71.09375 68.5 67.921875 
L 68.5 51.125 
L 62.984375 51.125 
Q 61.1875 60.296875 55.734375 64.640625 
Q 50.296875 69 40.484375 69 
Q 28.8125 69 22.796875 60.71875 
Q 16.796875 52.4375 16.796875 36.375 
Q 16.796875 20.359375 22.796875 12.078125 
Q 28.8125 3.8125 40.484375 3.8125 
Q 48.640625 3.8125 53.90625 7.6875 
Q 59.1875 11.578125 61.53125 19.28125 
z
" id="DejaVuSerif-67"/>
      <path d="M 9.71875 68.015625 
Q 9.71875 70.265625 11.34375 71.921875 
Q 12.984375 73.578125 15.28125 73.578125 
Q 17.53125 73.578125 19.15625 71.921875 
Q 20.796875 70.265625 20.796875 68.015625 
Q 20.796875 65.71875 19.1875 64.109375 
Q 17.578125 62.5 15.28125 62.5 
Q 12.984375 62.5 11.34375 64.109375 
Q 9.71875 65.71875 9.71875 68.015625 
z
M 21.1875 5.171875 
L 29.6875 5.171875 
L 29.6875 0 
L 3.609375 0 
L 3.609375 5.171875 
L 12.203125 5.171875 
L 12.203125 46.6875 
L 3.609375 46.6875 
L 3.609375 51.90625 
L 21.1875 51.90625 
z
" id="DejaVuSerif-105"/>
      <path d="M 43.015625 63.71875 
L 38.28125 63.71875 
Q 38.234375 67.390625 36.203125 69.28125 
Q 34.1875 71.1875 30.328125 71.1875 
Q 25.296875 71.1875 23.234375 68.421875 
Q 21.1875 65.671875 21.1875 58.59375 
L 21.1875 51.90625 
L 35.6875 51.90625 
L 35.6875 46.6875 
L 21.1875 46.6875 
L 21.1875 5.171875 
L 32.71875 5.171875 
L 32.71875 0 
L 3.609375 0 
L 3.609375 5.171875 
L 12.203125 5.171875 
L 12.203125 46.6875 
L 3.609375 46.6875 
L 3.609375 51.90625 
L 12.203125 51.90625 
L 12.203125 58.40625 
Q 12.203125 67.09375 16.71875 71.53125 
Q 21.234375 75.984375 29.984375 75.984375 
Q 33.25 75.984375 36.515625 75.390625 
Q 39.796875 74.8125 43.015625 73.578125 
z
" id="DejaVuSerif-102"/>
      <path d="M 18.65625 5.171875 
L 27.9375 5.171875 
L 26.953125 0 
L -1.515625 0 
L -0.53125 5.171875 
L 8.734375 5.171875 
L 20.90625 67.671875 
L 11.625 67.671875 
L 12.640625 72.90625 
L 41.109375 72.90625 
L 40.09375 67.671875 
L 30.8125 67.671875 
z
" id="DejaVuSerif-Italic-73"/>
      <path d="M 67.1875 19.28125 
Q 61.96875 9.078125 53.34375 3.828125 
Q 44.734375 -1.421875 33.109375 -1.421875 
Q 25.984375 -1.421875 20.359375 1.015625 
Q 14.75 3.46875 10.9375 8.203125 
Q 6.546875 13.671875 5.21875 20.625 
Q 3.90625 27.59375 5.609375 36.375 
Q 8.9375 53.375 20.78125 63.796875 
Q 32.625 74.21875 48.6875 74.21875 
Q 54.640625 74.21875 61.0625 72.65625 
Q 67.484375 71.09375 74.609375 67.921875 
L 71.390625 51.125 
L 65.875 51.125 
Q 65.828125 60.296875 61.234375 64.640625 
Q 56.640625 69 46.828125 69 
Q 35.15625 69 27.53125 60.71875 
Q 19.921875 52.4375 16.796875 36.375 
Q 13.671875 20.359375 18.0625 12.078125 
Q 22.46875 3.8125 34.125 3.8125 
Q 42.28125 3.8125 48.3125 7.6875 
Q 54.34375 11.578125 58.203125 19.28125 
z
" id="DejaVuSerif-Italic-67"/>
      <path d="M 25.875 72.90625 
L 33.6875 72.90625 
L 7.8125 -9.28125 
L 0 -9.28125 
z
" id="DejaVuSerif-47"/>
      <path d="M 18.65625 5.171875 
L 33.25 5.171875 
Q 42.046875 5.171875 46.84375 8.984375 
Q 51.65625 12.796875 53.265625 21.09375 
Q 54.890625 29.34375 51.59375 33.125 
Q 48.296875 36.921875 39.453125 36.921875 
L 24.859375 36.921875 
z
M 25.828125 42.09375 
L 38.234375 42.09375 
Q 46.234375 42.09375 50.53125 45.171875 
Q 54.828125 48.25 56.109375 54.890625 
Q 57.421875 61.578125 54.3125 64.625 
Q 51.21875 67.671875 43.21875 67.671875 
L 30.8125 67.671875 
z
M -1.515625 0 
L -0.53125 5.171875 
L 8.734375 5.171875 
L 20.90625 67.671875 
L 11.625 67.671875 
L 12.640625 72.90625 
L 48.640625 72.90625 
Q 59.671875 72.90625 64.375 68.390625 
Q 69.09375 63.875 67.328125 54.890625 
Q 66.109375 48.390625 61.46875 44.53125 
Q 56.84375 40.671875 49.171875 39.796875 
Q 58.25 38.625 62.125 33.859375 
Q 66.015625 29.109375 64.453125 21.09375 
Q 62.359375 10.25 54.515625 5.125 
Q 46.6875 0 32.171875 0 
z
" id="DejaVuSerif-Italic-66"/>
      <path d="M 10.59375 35.296875 
L 73.1875 35.296875 
L 73.1875 27.390625 
L 10.59375 27.390625 
z
" id="DejaVuSerif-8722"/>
     </defs>
     <g transform="translate(31.575 263.728)rotate(-90)scale(0.1 -0.1)">
      <use transform="translate(0 0.7125)" xlink:href="#DejaVuSerif-67"/>
      <use transform="translate(76.513672 0.7125)" xlink:href="#DejaVuSerif-111"/>
      <use transform="translate(136.71875 0.7125)" xlink:href="#DejaVuSerif-108"/>
      <use transform="translate(168.701172 0.7125)" xlink:href="#DejaVuSerif-108"/>
      <use transform="translate(200.683594 0.7125)" xlink:href="#DejaVuSerif-101"/>
      <use transform="translate(259.863281 0.7125)" xlink:href="#DejaVuSerif-99"/>
      <use transform="translate(315.869141 0.7125)" xlink:href="#DejaVuSerif-116"/>
      <use transform="translate(356.054688 0.7125)" xlink:href="#DejaVuSerif-105"/>
      <use transform="translate(388.037109 0.7125)" xlink:href="#DejaVuSerif-111"/>
      <use transform="translate(448.242188 0.7125)" xlink:href="#DejaVuSerif-110"/>
      <use transform="translate(512.646484 0.7125)" xlink:href="#DejaVuSerif-32"/>
      <use transform="translate(544.433594 0.7125)" xlink:href="#DejaVuSerif-101"/>
      <use transform="translate(603.613281 0.7125)" xlink:href="#DejaVuSerif-102"/>
      <use transform="translate(640.625 0.7125)" xlink:href="#DejaVuSerif-102"/>
      <use transform="translate(677.636719 0.7125)" xlink:href="#DejaVuSerif-105"/>
      <use transform="translate(709.619141 0.7125)" xlink:href="#DejaVuSerif-99"/>
      <use transform="translate(765.625 0.7125)" xlink:href="#DejaVuSerif-105"/>
      <use transform="translate(797.607422 0.7125)" xlink:href="#DejaVuSerif-101"/>
      <use transform="translate(856.787109 0.7125)" xlink:href="#DejaVuSerif-110"/>
      <use transform="translate(921.191406 0.7125)" xlink:href="#DejaVuSerif-99"/>
      <use transform="translate(977.197266 0.7125)" xlink:href="#DejaVuSerif-121"/>
      <use transform="translate(1033.691406 0.7125)" xlink:href="#DejaVuSerif-32"/>
      <use transform="translate(1065.478516 0.7125)" xlink:href="#DejaVuSerif-Italic-73"/>
      <use transform="translate(1104.980469 -14.859375)scale(0.7)" xlink:href="#DejaVuSerif-Italic-67"/>
      <use transform="translate(1161.135352 0.7125)" xlink:href="#DejaVuSerif-47"/>
      <use transform="translate(1194.826758 0.7125)" xlink:href="#DejaVuSerif-Italic-73"/>
      <use transform="translate(1234.328711 -14.859375)scale(0.7)" xlink:href="#DejaVuSerif-Italic-66"/>
      <use transform="translate(1288.364453 0.7125)" xlink:href="#DejaVuSerif-Italic-69"/>
      <use transform="translate(1361.3625 -14.859375)scale(0.7)" xlink:href="#DejaVuSerif-Italic-66"/>
      <use transform="translate(1415.398242 0.7125)" xlink:href="#DejaVuSerif-44"/>
      <use transform="translate(1447.185352 0.7125)" xlink:href="#DejaVuSerif-32"/>
      <use transform="translate(1478.972461 0.7125)" xlink:href="#DejaVuSerif-Italic-107"/>
      <use transform="translate(1539.568164 0.7125)" xlink:href="#DejaVuSerif-Italic-101"/>
      <use transform="translate(1598.747852 0.7125)" xlink:href="#DejaVuSerif-Italic-86"/>
      <use transform="translate(1678.143659 37.046875)scale(0.7)" xlink:href="#DejaVuSerif-8722"/>
      <use transform="translate(1736.796003 37.046875)scale(0.7)" xlink:href="#DejaVuSerif-49"/>
     </g>
    </g>
   </g>
   <g id="line2d_16">
    <defs>
     <path d="M 0 -5.5 
L -1.234827 -1.699593 
L -5.230811 -1.699593 
L -1.997992 0.649187 
L -3.232819 4.449593 
L -0 2.100813 
L 3.232819 4.449593 
L 1.997992 0.649187 
L 5.230811 -1.699593 
L 1.234827 -1.699593 
z
" id="m00af18906f" style="stroke:#0080ff;stroke-linejoin:bevel;"/>
    </defs>
    <g clip-path="url(#pb28bd77831)">
     <use style="fill-opacity:0;stroke:#0080ff;stroke-linejoin:bevel;" x="73.832727" xlink:href="#m00af18906f" y="293.260969"/>
     <use style="fill-opacity:0;stroke:#0080ff;stroke-linejoin:bevel;" x="82.285611" xlink:href="#m00af18906f" y="264.387481"/>
     <use style="fill-opacity:0;stroke:#0080ff;stroke-linejoin:bevel;" x="91.222409" xlink:href="#m00af18906f" y="232.105318"/>
     <use style="fill-opacity:0;stroke:#0080ff;stroke-linejoin:bevel;" x="99.751782" xlink:href="#m00af18906f" y="213.056836"/>
     <use style="fill-opacity:0;stroke:#0080ff;stroke-linejoin:bevel;" x="109.412889" xlink:href="#m00af18906f" y="208.244588"/>
     <use style="fill-opacity:0;stroke:#0080ff;stroke-linejoin:bevel;" x="118.610376" xlink:href="#m00af18906f" y="209.44765"/>
     <use style="fill-opacity:0;stroke:#0080ff;stroke-linejoin:bevel;" x="127.889035" xlink:href="#m00af18906f" y="221.077249"/>
     <use style="fill-opacity:0;stroke:#0080ff;stroke-linejoin:bevel;" x="144.844755" xlink:href="#m00af18906f" y="235.313483"/>
     <use style="fill-opacity:0;stroke:#0080ff;stroke-linejoin:bevel;" x="163.861012" xlink:href="#m00af18906f" y="251.955841"/>
     <use style="fill-opacity:0;stroke:#0080ff;stroke-linejoin:bevel;" x="181.811096" xlink:href="#m00af18906f" y="262.783399"/>
     <use style="fill-opacity:0;stroke:#0080ff;stroke-linejoin:bevel;" x="199.731522" xlink:href="#m00af18906f" y="269.80126"/>
     <use style="fill-opacity:0;stroke:#0080ff;stroke-linejoin:bevel;" x="218.138983" xlink:href="#m00af18906f" y="273.811467"/>
     <use style="fill-opacity:0;stroke:#0080ff;stroke-linejoin:bevel;" x="236.043799" xlink:href="#m00af18906f" y="278.824225"/>
     <use style="fill-opacity:0;stroke:#0080ff;stroke-linejoin:bevel;" x="253.41787" xlink:href="#m00af18906f" y="281.230349"/>
     <use style="fill-opacity:0;stroke:#0080ff;stroke-linejoin:bevel;" x="271.82221" xlink:href="#m00af18906f" y="284.839535"/>
     <use style="fill-opacity:0;stroke:#0080ff;stroke-linejoin:bevel;" x="289.697366" xlink:href="#m00af18906f" y="286.042597"/>
     <use style="fill-opacity:0;stroke:#0080ff;stroke-linejoin:bevel;" x="308.087656" xlink:href="#m00af18906f" y="287.84719"/>
     <use style="fill-opacity:0;stroke:#0080ff;stroke-linejoin:bevel;" x="326.467019" xlink:href="#m00af18906f" y="288.248211"/>
     <use style="fill-opacity:0;stroke:#0080ff;stroke-linejoin:bevel;" x="343.321273" xlink:href="#m00af18906f" y="289.451273"/>
     <use style="fill-opacity:0;stroke:#0080ff;stroke-linejoin:bevel;" x="361.708442" xlink:href="#m00af18906f" y="290.854845"/>
     <use style="fill-opacity:0;stroke:#0080ff;stroke-linejoin:bevel;" x="379.574232" xlink:href="#m00af18906f" y="290.854845"/>
     <use style="fill-opacity:0;stroke:#0080ff;stroke-linejoin:bevel;" x="397.955156" xlink:href="#m00af18906f" y="291.456376"/>
    </g>
   </g>
   <g id="line2d_17">
    <path clip-path="url(#pb28bd77831)" d="M 73.832727 295.488 
L 82.285611 267.706116 
L 91.222409 228.177121 
L 99.751782 211.364214 
L 109.412889 208.244588 
L 118.610376 212.916414 
L 127.889035 220.651942 
L 144.844755 235.994466 
L 163.861012 250.646998 
L 181.811096 261.110897 
L 199.731522 268.808205 
L 218.138983 274.582626 
L 236.043799 278.715704 
L 253.41787 281.732206 
L 271.82221 284.16488 
L 289.697366 285.985301 
L 308.087656 287.452536 
L 326.467019 288.615236 
L 343.321273 289.480422 
L 361.708442 290.25652 
L 379.574232 290.880214 
L 397.955156 291.417 
" style="fill:none;stroke:#0080ff;stroke-linecap:square;stroke-width:1.5;"/>
   </g>
   <g id="line2d_18">
    <defs>
     <path d="M 0 -5.5 
L -1.234827 -1.699593 
L -5.230811 -1.699593 
L -1.997992 0.649187 
L -3.232819 4.449593 
L -0 2.100813 
L 3.232819 4.449593 
L 1.997992 0.649187 
L 5.230811 -1.699593 
L 1.234827 -1.699593 
z
" id="mf22e6d8320" style="stroke:#ff9400;stroke-linejoin:bevel;"/>
    </defs>
    <g clip-path="url(#pb28bd77831)">
     <use style="fill-opacity:0;stroke:#ff9400;stroke-linejoin:bevel;" x="92.56156" xlink:href="#mf22e6d8320" y="150.057697"/>
     <use style="fill-opacity:0;stroke:#ff9400;stroke-linejoin:bevel;" x="101.472018" xlink:href="#mf22e6d8320" y="89.390522"/>
     <use style="fill-opacity:0;stroke:#ff9400;stroke-linejoin:bevel;" x="110.382475" xlink:href="#mf22e6d8320" y="78.990435"/>
     <use style="fill-opacity:0;stroke:#ff9400;stroke-linejoin:bevel;" x="128.698416" xlink:href="#mf22e6d8320" y="53.568"/>
     <use style="fill-opacity:0;stroke:#ff9400;stroke-linejoin:bevel;" x="146.519331" xlink:href="#mf22e6d8320" y="86.501609"/>
     <use style="fill-opacity:0;stroke:#ff9400;stroke-linejoin:bevel;" x="164.340247" xlink:href="#mf22e6d8320" y="135.035349"/>
     <use style="fill-opacity:0;stroke:#ff9400;stroke-linejoin:bevel;" x="182.656187" xlink:href="#mf22e6d8320" y="175.480132"/>
     <use style="fill-opacity:0;stroke:#ff9400;stroke-linejoin:bevel;" x="200.477103" xlink:href="#mf22e6d8320" y="170.280089"/>
     <use style="fill-opacity:0;stroke:#ff9400;stroke-linejoin:bevel;" x="218.298018" xlink:href="#mf22e6d8320" y="217.080481"/>
     <use style="fill-opacity:0;stroke:#ff9400;stroke-linejoin:bevel;" x="236.613959" xlink:href="#mf22e6d8320" y="234.991742"/>
     <use style="fill-opacity:0;stroke:#ff9400;stroke-linejoin:bevel;" x="254.434874" xlink:href="#mf22e6d8320" y="244.814046"/>
     <use style="fill-opacity:0;stroke:#ff9400;stroke-linejoin:bevel;" x="272.750815" xlink:href="#mf22e6d8320" y="248.858525"/>
     <use style="fill-opacity:0;stroke:#ff9400;stroke-linejoin:bevel;" x="290.57173" xlink:href="#mf22e6d8320" y="256.947481"/>
     <use style="fill-opacity:0;stroke:#ff9400;stroke-linejoin:bevel;" x="308.887671" xlink:href="#mf22e6d8320" y="259.836394"/>
     <use style="fill-opacity:0;stroke:#ff9400;stroke-linejoin:bevel;" x="326.708586" xlink:href="#mf22e6d8320" y="267.347568"/>
     <use style="fill-opacity:0;stroke:#ff9400;stroke-linejoin:bevel;" x="344.529501" xlink:href="#mf22e6d8320" y="269.080916"/>
     <use style="fill-opacity:0;stroke:#ff9400;stroke-linejoin:bevel;" x="362.845442" xlink:href="#mf22e6d8320" y="274.28096"/>
     <use style="fill-opacity:0;stroke:#ff9400;stroke-linejoin:bevel;" x="380.666357" xlink:href="#mf22e6d8320" y="276.014308"/>
     <use style="fill-opacity:0;stroke:#ff9400;stroke-linejoin:bevel;" x="398.487273" xlink:href="#mf22e6d8320" y="279.481003"/>
    </g>
   </g>
   <g id="line2d_19">
    <path clip-path="url(#pb28bd77831)" d="M 92.56156 155.684223 
L 101.472018 83.4141 
L 110.382475 53.568 
L 128.698416 59.544896 
L 146.519331 94.588322 
L 164.340247 131.639766 
L 182.656187 164.719304 
L 200.477103 190.686051 
L 218.298018 210.973345 
L 236.613959 227.001403 
L 254.434874 238.987596 
L 272.750815 248.528059 
L 290.57173 255.791368 
L 308.887671 261.704367 
L 326.708586 266.31206 
L 344.529501 270.054606 
L 362.845442 273.204603 
L 380.666357 275.740839 
L 398.487273 277.866238 
" style="fill:none;stroke:#ff9400;stroke-linecap:square;stroke-width:1.5;"/>
   </g>
   <g id="patch_3">
    <path d="M 57.6 307.584 
L 57.6 41.472 
" style="fill:none;stroke:#000000;stroke-linecap:square;stroke-linejoin:miter;stroke-width:0.8;"/>
   </g>
   <g id="patch_4">
    <path d="M 414.72 307.584 
L 414.72 41.472 
" style="fill:none;stroke:#000000;stroke-linecap:square;stroke-linejoin:miter;stroke-width:0.8;"/>
   </g>
   <g id="patch_5">
    <path d="M 57.6 307.584 
L 414.72 307.584 
" style="fill:none;stroke:#000000;stroke-linecap:square;stroke-linejoin:miter;stroke-width:0.8;"/>
   </g>
   <g id="patch_6">
    <path d="M 57.6 41.472 
L 414.72 41.472 
" style="fill:none;stroke:#000000;stroke-linecap:square;stroke-linejoin:miter;stroke-width:0.8;"/>
   </g>
   <g id="legend_1">
    <g id="patch_7">
     <path d="M 254.42 78.82825 
L 407.72 78.82825 
Q 409.72 78.82825 409.72 76.82825 
L 409.72 48.472 
Q 409.72 46.472 407.72 46.472 
L 254.42 46.472 
Q 252.42 46.472 252.42 48.472 
L 252.42 76.82825 
Q 252.42 78.82825 254.42 78.82825 
z
" style="fill:#ffffff;opacity:0.8;stroke:#cccccc;stroke-linejoin:miter;"/>
    </g>
    <g id="line2d_20">
     <path d="M 256.42 54.570437 
L 276.42 54.570437 
" style="fill:none;stroke:#0080ff;stroke-linecap:square;stroke-width:1.5;"/>
    </g>
    <g id="line2d_21"/>
    <g id="text_18">
     <!-- b-$Ga_2 O_3$, $L_D = 0.11 \,mkm$ -->
     <defs>
      <path d="M 11.53125 5.171875 
L 11.53125 70.796875 
L 2.875 70.796875 
L 2.875 75.984375 
L 20.515625 75.984375 
L 20.515625 43.796875 
Q 23.140625 48.6875 27.21875 51 
Q 31.296875 53.328125 37.3125 53.328125 
Q 46.875 53.328125 52.921875 45.75 
Q 58.984375 38.1875 58.984375 25.984375 
Q 58.984375 13.765625 52.921875 6.171875 
Q 46.875 -1.421875 37.3125 -1.421875 
Q 31.296875 -1.421875 27.21875 0.890625 
Q 23.140625 3.21875 20.515625 8.109375 
L 20.515625 0 
L 2.875 0 
L 2.875 5.171875 
z
M 20.515625 23.390625 
Q 20.515625 14.015625 24.09375 9.109375 
Q 27.6875 4.203125 34.515625 4.203125 
Q 41.40625 4.203125 44.9375 9.71875 
Q 48.484375 15.234375 48.484375 25.984375 
Q 48.484375 36.765625 44.9375 42.234375 
Q 41.40625 47.703125 34.515625 47.703125 
Q 27.6875 47.703125 24.09375 42.765625 
Q 20.515625 37.84375 20.515625 28.515625 
z
" id="DejaVuSerif-98"/>
      <path d="M 4.390625 30.609375 
L 29.390625 30.609375 
L 29.390625 23 
L 4.390625 23 
z
" id="DejaVuSerif-45"/>
      <path d="M 66.890625 51.125 
Q 66.9375 60.25 62.375 64.625 
Q 57.8125 69 48.140625 69 
Q 35.546875 69 27.75 60.890625 
Q 19.96875 52.78125 16.796875 36.375 
Q 13.671875 20.3125 18.453125 12.0625 
Q 23.25 3.8125 35.640625 3.8125 
Q 41.15625 3.8125 46.453125 5.171875 
Q 51.765625 6.546875 56.84375 9.28125 
L 60.5 28.078125 
L 46.78125 28.078125 
L 47.796875 33.296875 
L 71.4375 33.296875 
L 66.109375 6.109375 
Q 58.890625 2.34375 51.03125 0.453125 
Q 43.171875 -1.421875 34.625 -1.421875 
Q 18.109375 -1.421875 10.203125 8.90625 
Q 2.296875 19.234375 5.609375 36.375 
Q 8.984375 53.65625 20.9375 63.9375 
Q 32.90625 74.21875 49.75 74.21875 
Q 56 74.21875 62.375 72.78125 
Q 68.75 71.34375 75.6875 68.40625 
L 72.359375 51.125 
z
" id="DejaVuSerif-Italic-71"/>
      <path d="M 36.328125 8.109375 
Q 29.828125 -1.421875 19.34375 -1.421875 
Q 10.75 -1.421875 6.390625 4.390625 
Q 3.375 8.5 3.375 14.359375 
Q 3.375 16.84375 3.90625 19.625 
Q 7.234375 36.859375 19.234375 45.75 
Q 29.4375 53.328125 41.796875 53.328125 
Q 50.09375 53.328125 52.9375 51.90625 
L 43.84375 5.171875 
L 51.5625 5.171875 
L 50.59375 0 
L 34.765625 0 
z
M 12.84375 14.65625 
Q 12.84375 4.203125 22.953125 4.203125 
Q 29.109375 4.203125 33.28125 9.109375 
Q 37.453125 14.015625 39.3125 23.390625 
L 43.84375 46.921875 
L 43.84375 46.921875 
Q 43.84375 48.34375 39.9375 48.34375 
Q 30.5625 48.34375 23.296875 41.015625 
Q 16.0625 33.640625 13.484375 20.265625 
Q 12.84375 17.140625 12.84375 14.65625 
z
" id="DejaVuSerif-Italic-97"/>
      <path d="M 34.671875 3.8125 
Q 46.625 3.8125 54.34375 12.03125 
Q 62.0625 20.265625 65.1875 36.375 
Q 68.3125 52.546875 63.8125 60.765625 
Q 59.328125 69 47.359375 69 
Q 35.359375 69 27.640625 60.765625 
Q 19.921875 52.546875 16.796875 36.375 
Q 13.671875 20.265625 18.15625 12.03125 
Q 22.65625 3.8125 34.671875 3.8125 
z
M 33.640625 -1.421875 
Q 26.21875 -1.421875 20.484375 1.015625 
Q 14.75 3.46875 10.9375 8.203125 
Q 6.546875 13.671875 5.21875 20.609375 
Q 3.90625 27.546875 5.609375 36.375 
Q 7.328125 45.21875 11.328125 52.171875 
Q 15.328125 59.125 21.875 64.59375 
Q 27.59375 69.390625 34.234375 71.796875 
Q 40.875 74.21875 48.390625 74.21875 
Q 64.265625 74.21875 72 63.8125 
Q 79.734375 53.421875 76.421875 36.375 
Q 74.703125 27.640625 70.65625 20.625 
Q 66.609375 13.625 60.109375 8.203125 
Q 54.390625 3.421875 47.75 1 
Q 41.109375 -1.421875 33.640625 -1.421875 
z
" id="DejaVuSerif-Italic-79"/>
      <path d="M -1.515625 0 
L -0.53125 5.171875 
L 8.734375 5.171875 
L 20.90625 67.671875 
L 11.625 67.671875 
L 12.640625 72.90625 
L 41.109375 72.90625 
L 40.09375 67.671875 
L 30.8125 67.671875 
L 18.84375 6 
L 52.15625 6 
L 54.5 18.21875 
L 60.5 18.21875 
L 56.984375 0 
z
" id="DejaVuSerif-Italic-76"/>
      <path d="M 18.65625 5.171875 
L 27.734375 5.171875 
Q 41.9375 5.171875 51.109375 13.28125 
Q 60.296875 21.390625 63.25 36.515625 
Q 66.21875 51.65625 60.1875 59.65625 
Q 54.15625 67.671875 39.890625 67.671875 
L 30.8125 67.671875 
z
M -1.515625 0 
L -0.53125 5.171875 
L 8.734375 5.171875 
L 20.90625 67.671875 
L 11.625 67.671875 
L 12.640625 72.90625 
L 41.65625 72.90625 
Q 60.5 72.90625 69.15625 63.28125 
Q 77.828125 53.65625 74.46875 36.53125 
Q 71.140625 19.34375 58.71875 9.671875 
Q 46.296875 0 27.484375 0 
z
" id="DejaVuSerif-Italic-68"/>
      <path d="M 10.59375 45.21875 
L 73.1875 45.21875 
L 73.1875 37.40625 
L 10.59375 37.40625 
z
M 10.59375 25.296875 
L 73.1875 25.296875 
L 73.1875 17.484375 
L 10.59375 17.484375 
z
" id="DejaVuSerif-61"/>
      <path d="M 9.421875 5.078125 
Q 9.421875 7.8125 11.28125 9.71875 
Q 13.140625 11.625 15.921875 11.625 
Q 18.609375 11.625 20.5 9.71875 
Q 22.40625 7.8125 22.40625 5.078125 
Q 22.40625 2.390625 20.5 0.484375 
Q 18.609375 -1.421875 15.921875 -1.421875 
Q 13.140625 -1.421875 11.28125 0.453125 
Q 9.421875 2.34375 9.421875 5.078125 
z
" id="DejaVuSerif-46"/>
      <path d="M 54.734375 41.796875 
Q 58.453125 47.515625 63.03125 50.421875 
Q 67.625 53.328125 73 53.328125 
Q 81.15625 53.328125 84.1875 48.25 
Q 85.984375 45.21875 85.984375 40.28125 
Q 85.984375 37.0625 85.203125 33.015625 
L 79.78125 5.171875 
L 87.890625 5.171875 
L 86.921875 0 
L 69.828125 0 
L 76.03125 31.984375 
Q 76.765625 35.796875 76.765625 38.53125 
Q 76.765625 41.546875 75.875 43.3125 
Q 74.21875 46.6875 68.796875 46.6875 
Q 62.796875 46.6875 58.765625 42.140625 
Q 54.734375 37.59375 53.03125 28.90625 
L 47.40625 0 
L 38.421875 0 
L 44.734375 32.328125 
Q 45.40625 35.984375 45.40625 38.625 
Q 45.40625 41.65625 44.53125 43.359375 
Q 42.828125 46.6875 37.40625 46.6875 
Q 31.390625 46.6875 27.359375 42.140625 
Q 23.34375 37.59375 21.625 28.90625 
L 16.015625 0 
L 7.03125 0 
L 16.109375 46.78125 
L 7.515625 46.78125 
L 8.5 51.90625 
L 26.078125 51.90625 
L 24.3125 42.671875 
Q 27.78125 47.859375 32.171875 50.59375 
Q 36.578125 53.328125 41.453125 53.328125 
Q 47.515625 53.328125 50.96875 50.3125 
Q 54.4375 47.3125 54.734375 41.796875 
z
" id="DejaVuSerif-Italic-109"/>
     </defs>
     <g transform="translate(284.42 58.070437)scale(0.1 -0.1)">
      <use transform="translate(0 0.015625)" xlink:href="#DejaVuSerif-98"/>
      <use transform="translate(64.013672 0.015625)" xlink:href="#DejaVuSerif-45"/>
      <use transform="translate(97.802734 0.015625)" xlink:href="#DejaVuSerif-Italic-71"/>
      <use transform="translate(177.685547 0.015625)" xlink:href="#DejaVuSerif-Italic-97"/>
      <use transform="translate(237.304688 -15.55625)scale(0.7)" xlink:href="#DejaVuSerif-50"/>
      <use transform="translate(284.436133 0.015625)" xlink:href="#DejaVuSerif-Italic-79"/>
      <use transform="translate(366.418555 -15.55625)scale(0.7)" xlink:href="#DejaVuSerif-51"/>
      <use transform="translate(413.55 0.015625)" xlink:href="#DejaVuSerif-44"/>
      <use transform="translate(445.337109 0.015625)" xlink:href="#DejaVuSerif-32"/>
      <use transform="translate(477.124219 0.015625)" xlink:href="#DejaVuSerif-Italic-76"/>
      <use transform="translate(543.530469 -15.55625)scale(0.7)" xlink:href="#DejaVuSerif-Italic-68"/>
      <use transform="translate(621.213672 0.015625)" xlink:href="#DejaVuSerif-61"/>
      <use transform="translate(723.967578 0.015625)" xlink:href="#DejaVuSerif-48"/>
      <use transform="translate(787.590625 0.015625)" xlink:href="#DejaVuSerif-46"/>
      <use transform="translate(819.377734 0.015625)" xlink:href="#DejaVuSerif-49"/>
      <use transform="translate(883.000781 0.015625)" xlink:href="#DejaVuSerif-49"/>
      <use transform="translate(962.428181 0.015625)" xlink:href="#DejaVuSerif-Italic-109"/>
      <use transform="translate(1057.252399 0.015625)" xlink:href="#DejaVuSerif-Italic-107"/>
      <use transform="translate(1117.848103 0.015625)" xlink:href="#DejaVuSerif-Italic-109"/>
     </g>
    </g>
    <g id="line2d_22">
     <path d="M 256.42 69.248562 
L 276.42 69.248562 
" style="fill:none;stroke:#ff9400;stroke-linecap:square;stroke-width:1.5;"/>
    </g>
    <g id="line2d_23"/>
    <g id="text_19">
     <!-- a-$Ga_2 O_3$, $L_D = 0.14 \,mkm$ -->
     <defs>
      <path d="M 34.90625 24.703125 
L 34.90625 63.484375 
L 10.015625 24.703125 
z
M 56.390625 0 
L 23.1875 0 
L 23.1875 5.171875 
L 34.90625 5.171875 
L 34.90625 19.484375 
L 3.078125 19.484375 
L 3.078125 24.8125 
L 35.015625 74.21875 
L 44.671875 74.21875 
L 44.671875 24.703125 
L 58.59375 24.703125 
L 58.59375 19.484375 
L 44.671875 19.484375 
L 44.671875 5.171875 
L 56.390625 5.171875 
z
" id="DejaVuSerif-52"/>
     </defs>
     <g transform="translate(284.42 72.748562)scale(0.1 -0.1)">
      <use transform="translate(0 0.015625)" xlink:href="#DejaVuSerif-97"/>
      <use transform="translate(59.619141 0.015625)" xlink:href="#DejaVuSerif-45"/>
      <use transform="translate(93.408203 0.015625)" xlink:href="#DejaVuSerif-Italic-71"/>
      <use transform="translate(173.291016 0.015625)" xlink:href="#DejaVuSerif-Italic-97"/>
      <use transform="translate(232.910156 -15.55625)scale(0.7)" xlink:href="#DejaVuSerif-50"/>
      <use transform="translate(280.041602 0.015625)" xlink:href="#DejaVuSerif-Italic-79"/>
      <use transform="translate(362.024023 -15.55625)scale(0.7)" xlink:href="#DejaVuSerif-51"/>
      <use transform="translate(409.155469 0.015625)" xlink:href="#DejaVuSerif-44"/>
      <use transform="translate(440.942578 0.015625)" xlink:href="#DejaVuSerif-32"/>
      <use transform="translate(472.729688 0.015625)" xlink:href="#DejaVuSerif-Italic-76"/>
      <use transform="translate(539.135937 -15.55625)scale(0.7)" xlink:href="#DejaVuSerif-Italic-68"/>
      <use transform="translate(616.819141 0.015625)" xlink:href="#DejaVuSerif-61"/>
      <use transform="translate(719.573047 0.015625)" xlink:href="#DejaVuSerif-48"/>
      <use transform="translate(783.196094 0.015625)" xlink:href="#DejaVuSerif-46"/>
      <use transform="translate(814.983203 0.015625)" xlink:href="#DejaVuSerif-49"/>
      <use transform="translate(878.60625 0.015625)" xlink:href="#DejaVuSerif-52"/>
      <use transform="translate(958.033649 0.015625)" xlink:href="#DejaVuSerif-Italic-109"/>
      <use transform="translate(1052.857868 0.015625)" xlink:href="#DejaVuSerif-Italic-107"/>
      <use transform="translate(1113.453571 0.015625)" xlink:href="#DejaVuSerif-Italic-109"/>
     </g>
    </g>
   </g>
  </g>
 </g>
 <defs>
  <clipPath id="pb28bd77831">
   <rect height="266.112" width="357.12" x="57.6" y="41.472"/>
  </clipPath>
 </defs>
</svg>
