<?xml version="1.0" encoding="utf-8" standalone="no"?>
<!DOCTYPE svg PUBLIC "-//W3C//DTD SVG 1.1//EN"
  "http://www.w3.org/Graphics/SVG/1.1/DTD/svg11.dtd">
<!-- Created with matplotlib (https://matplotlib.org/) -->
<svg height="345.6pt" version="1.1" viewBox="0 0 460.8 345.6" width="460.8pt" xmlns="http://www.w3.org/2000/svg" xmlns:xlink="http://www.w3.org/1999/xlink">
 <defs>
  <style type="text/css">
*{stroke-linecap:butt;stroke-linejoin:round;}
  </style>
 </defs>
 <g id="figure_1">
  <g id="patch_1">
   <path d="M 0 345.6 
L 460.8 345.6 
L 460.8 0 
L 0 0 
z
" style="fill:#ffffff;"/>
  </g>
  <g id="axes_1">
   <g id="patch_2">
    <path d="M 57.6 307.584 
L 414.72 307.584 
L 414.72 41.472 
L 57.6 41.472 
z
" style="fill:#ffffff;"/>
   </g>
   <g id="matplotlib.axis_1">
    <g id="xtick_1">
     <g id="line2d_1">
      <defs>
       <path d="M 0 0 
L 0 3.5 
" id="m935a6966f9" style="stroke:#000000;stroke-width:0.8;"/>
      </defs>
      <g>
       <use style="stroke:#000000;stroke-width:0.8;" x="83.288685" xlink:href="#m935a6966f9" y="307.584"/>
      </g>
     </g>
     <g id="text_1">
      <!-- 5 -->
      <defs>
       <path d="M 50.296875 72.90625 
L 50.296875 64.890625 
L 16.890625 64.890625 
L 16.890625 44 
Q 19.4375 45.75 22.828125 46.625 
Q 26.21875 47.515625 30.421875 47.515625 
Q 42.234375 47.515625 49.0625 40.96875 
Q 55.90625 34.421875 55.90625 23.09375 
Q 55.90625 11.53125 49 5.046875 
Q 42.09375 -1.421875 29.59375 -1.421875 
Q 24.5625 -1.421875 19.28125 -0.1875 
Q 14.015625 1.03125 8.5 3.515625 
L 8.5 17.671875 
L 14.015625 17.671875 
Q 14.453125 10.75 18.421875 7.078125 
Q 22.40625 3.421875 29.59375 3.421875 
Q 37.3125 3.421875 41.453125 8.5 
Q 45.609375 13.578125 45.609375 23.09375 
Q 45.609375 32.5625 41.484375 37.609375 
Q 37.359375 42.671875 29.59375 42.671875 
Q 25.203125 42.671875 21.84375 41.109375 
Q 18.5 39.546875 15.921875 36.28125 
L 11.71875 36.28125 
L 11.71875 72.90625 
z
" id="DejaVuSerif-53"/>
      </defs>
      <g transform="translate(80.107435 322.182437)scale(0.1 -0.1)">
       <use xlink:href="#DejaVuSerif-53"/>
      </g>
     </g>
    </g>
    <g id="xtick_2">
     <g id="line2d_2">
      <g>
       <use style="stroke:#000000;stroke-width:0.8;" x="131.093804" xlink:href="#m935a6966f9" y="307.584"/>
      </g>
     </g>
     <g id="text_2">
      <!-- 10 -->
      <defs>
       <path d="M 14.203125 0 
L 14.203125 5.171875 
L 26.90625 5.171875 
L 26.90625 65.828125 
L 12.203125 56.296875 
L 12.203125 62.703125 
L 29.984375 74.21875 
L 36.71875 74.21875 
L 36.71875 5.171875 
L 49.421875 5.171875 
L 49.421875 0 
z
" id="DejaVuSerif-49"/>
       <path d="M 31.78125 3.421875 
Q 39.265625 3.421875 42.96875 11.625 
Q 46.6875 19.828125 46.6875 36.375 
Q 46.6875 52.984375 42.96875 61.1875 
Q 39.265625 69.390625 31.78125 69.390625 
Q 24.3125 69.390625 20.59375 61.1875 
Q 16.890625 52.984375 16.890625 36.375 
Q 16.890625 19.828125 20.59375 11.625 
Q 24.3125 3.421875 31.78125 3.421875 
z
M 31.78125 -1.421875 
Q 19.921875 -1.421875 13.25 8.53125 
Q 6.59375 18.5 6.59375 36.375 
Q 6.59375 54.296875 13.25 64.25 
Q 19.921875 74.21875 31.78125 74.21875 
Q 43.703125 74.21875 50.34375 64.25 
Q 56.984375 54.296875 56.984375 36.375 
Q 56.984375 18.5 50.34375 8.53125 
Q 43.703125 -1.421875 31.78125 -1.421875 
z
" id="DejaVuSerif-48"/>
      </defs>
      <g transform="translate(124.731304 322.182437)scale(0.1 -0.1)">
       <use xlink:href="#DejaVuSerif-49"/>
       <use x="63.623047" xlink:href="#DejaVuSerif-48"/>
      </g>
     </g>
    </g>
    <g id="xtick_3">
     <g id="line2d_3">
      <g>
       <use style="stroke:#000000;stroke-width:0.8;" x="178.898923" xlink:href="#m935a6966f9" y="307.584"/>
      </g>
     </g>
     <g id="text_3">
      <!-- 15 -->
      <g transform="translate(172.536423 322.182437)scale(0.1 -0.1)">
       <use xlink:href="#DejaVuSerif-49"/>
       <use x="63.623047" xlink:href="#DejaVuSerif-53"/>
      </g>
     </g>
    </g>
    <g id="xtick_4">
     <g id="line2d_4">
      <g>
       <use style="stroke:#000000;stroke-width:0.8;" x="226.704042" xlink:href="#m935a6966f9" y="307.584"/>
      </g>
     </g>
     <g id="text_4">
      <!-- 20 -->
      <defs>
       <path d="M 12.796875 55.515625 
L 7.328125 55.515625 
L 7.328125 68.5 
Q 12.546875 71.296875 17.84375 72.75 
Q 23.140625 74.21875 28.21875 74.21875 
Q 39.59375 74.21875 46.1875 68.703125 
Q 52.78125 63.1875 52.78125 53.71875 
Q 52.78125 43.015625 37.84375 28.125 
Q 36.671875 27 36.078125 26.421875 
L 17.671875 8.015625 
L 48.09375 8.015625 
L 48.09375 17 
L 53.8125 17 
L 53.8125 0 
L 6.78125 0 
L 6.78125 5.328125 
L 28.90625 27.390625 
Q 36.234375 34.71875 39.359375 40.84375 
Q 42.484375 46.96875 42.484375 53.71875 
Q 42.484375 61.078125 38.640625 65.234375 
Q 34.8125 69.390625 28.078125 69.390625 
Q 21.09375 69.390625 17.28125 65.921875 
Q 13.484375 62.453125 12.796875 55.515625 
z
" id="DejaVuSerif-50"/>
      </defs>
      <g transform="translate(220.341542 322.182437)scale(0.1 -0.1)">
       <use xlink:href="#DejaVuSerif-50"/>
       <use x="63.623047" xlink:href="#DejaVuSerif-48"/>
      </g>
     </g>
    </g>
    <g id="xtick_5">
     <g id="line2d_5">
      <g>
       <use style="stroke:#000000;stroke-width:0.8;" x="274.509162" xlink:href="#m935a6966f9" y="307.584"/>
      </g>
     </g>
     <g id="text_5">
      <!-- 25 -->
      <g transform="translate(268.146662 322.182437)scale(0.1 -0.1)">
       <use xlink:href="#DejaVuSerif-50"/>
       <use x="63.623047" xlink:href="#DejaVuSerif-53"/>
      </g>
     </g>
    </g>
    <g id="xtick_6">
     <g id="line2d_6">
      <g>
       <use style="stroke:#000000;stroke-width:0.8;" x="322.314281" xlink:href="#m935a6966f9" y="307.584"/>
      </g>
     </g>
     <g id="text_6">
      <!-- 30 -->
      <defs>
       <path d="M 9.71875 69.828125 
Q 15.4375 71.96875 20.671875 73.09375 
Q 25.921875 74.21875 30.515625 74.21875 
Q 41.21875 74.21875 47.21875 69.59375 
Q 53.21875 64.984375 53.21875 56.78125 
Q 53.21875 50.203125 49.0625 45.78125 
Q 44.921875 41.359375 37.3125 39.796875 
Q 46.296875 38.53125 51.25 33.28125 
Q 56.203125 28.03125 56.203125 19.671875 
Q 56.203125 9.46875 49.34375 4.015625 
Q 42.484375 -1.421875 29.59375 -1.421875 
Q 23.875 -1.421875 18.421875 -0.1875 
Q 12.984375 1.03125 7.625 3.515625 
L 7.625 17.671875 
L 13.09375 17.671875 
Q 13.578125 10.640625 17.828125 7.03125 
Q 22.078125 3.421875 29.78125 3.421875 
Q 37.25 3.421875 41.578125 7.734375 
Q 45.90625 12.0625 45.90625 19.578125 
Q 45.90625 28.171875 41.453125 32.59375 
Q 37.015625 37.015625 28.421875 37.015625 
L 23.78125 37.015625 
L 23.78125 42 
L 26.21875 42 
Q 34.765625 42 39.03125 45.53125 
Q 43.3125 49.078125 43.3125 56.203125 
Q 43.3125 62.59375 39.796875 65.984375 
Q 36.28125 69.390625 29.6875 69.390625 
Q 23.09375 69.390625 19.453125 66.265625 
Q 15.828125 63.140625 15.1875 56.984375 
L 9.71875 56.984375 
z
" id="DejaVuSerif-51"/>
      </defs>
      <g transform="translate(315.951781 322.182437)scale(0.1 -0.1)">
       <use xlink:href="#DejaVuSerif-51"/>
       <use x="63.623047" xlink:href="#DejaVuSerif-48"/>
      </g>
     </g>
    </g>
    <g id="xtick_7">
     <g id="line2d_7">
      <g>
       <use style="stroke:#000000;stroke-width:0.8;" x="370.1194" xlink:href="#m935a6966f9" y="307.584"/>
      </g>
     </g>
     <g id="text_7">
      <!-- 35 -->
      <g transform="translate(363.7569 322.182437)scale(0.1 -0.1)">
       <use xlink:href="#DejaVuSerif-51"/>
       <use x="63.623047" xlink:href="#DejaVuSerif-53"/>
      </g>
     </g>
    </g>
    <g id="text_8">
     <!-- Beam electron energy $E_b$, $keV$ -->
     <defs>
      <path d="M 24.703125 5.171875 
L 39.3125 5.171875 
Q 48.09375 5.171875 52.140625 8.984375 
Q 56.203125 12.796875 56.203125 21.09375 
Q 56.203125 29.34375 52.171875 33.125 
Q 48.140625 36.921875 39.3125 36.921875 
L 24.703125 36.921875 
z
M 24.703125 42.09375 
L 37.109375 42.09375 
Q 45.125 42.09375 48.796875 45.171875 
Q 52.484375 48.25 52.484375 54.890625 
Q 52.484375 61.578125 48.796875 64.625 
Q 45.125 67.671875 37.109375 67.671875 
L 24.703125 67.671875 
z
M 5.515625 0 
L 5.515625 5.171875 
L 14.796875 5.171875 
L 14.796875 67.671875 
L 5.515625 67.671875 
L 5.515625 72.90625 
L 41.5 72.90625 
Q 52.546875 72.90625 58.125 68.390625 
Q 63.71875 63.875 63.71875 54.890625 
Q 63.71875 48.390625 59.828125 44.53125 
Q 55.953125 40.671875 48.484375 39.796875 
Q 57.765625 38.625 62.578125 33.859375 
Q 67.390625 29.109375 67.390625 21.09375 
Q 67.390625 10.25 60.546875 5.125 
Q 53.71875 0 39.203125 0 
z
" id="DejaVuSerif-66"/>
      <path d="M 54.203125 25 
L 15.484375 25 
L 15.484375 24.609375 
Q 15.484375 14.109375 19.4375 8.765625 
Q 23.390625 3.421875 31.109375 3.421875 
Q 37.015625 3.421875 40.796875 6.515625 
Q 44.578125 9.625 46.09375 15.71875 
L 53.328125 15.71875 
Q 51.171875 7.171875 45.375 2.875 
Q 39.59375 -1.421875 30.171875 -1.421875 
Q 18.796875 -1.421875 11.890625 6.078125 
Q 4.984375 13.578125 4.984375 25.984375 
Q 4.984375 38.28125 11.765625 45.796875 
Q 18.5625 53.328125 29.59375 53.328125 
Q 41.359375 53.328125 47.65625 46.0625 
Q 53.953125 38.8125 54.203125 25 
z
M 43.609375 30.171875 
Q 43.3125 39.265625 39.765625 43.875 
Q 36.234375 48.484375 29.59375 48.484375 
Q 23.390625 48.484375 19.828125 43.84375 
Q 16.265625 39.203125 15.484375 30.171875 
z
" id="DejaVuSerif-101"/>
      <path d="M 39.796875 16.3125 
L 39.796875 27.296875 
L 28.21875 27.296875 
Q 21.53125 27.296875 18.25 24.40625 
Q 14.984375 21.53125 14.984375 15.578125 
Q 14.984375 10.15625 18.296875 6.984375 
Q 21.625 3.8125 27.296875 3.8125 
Q 32.90625 3.8125 36.34375 7.28125 
Q 39.796875 10.75 39.796875 16.3125 
z
M 48.78125 32.421875 
L 48.78125 5.171875 
L 56.78125 5.171875 
L 56.78125 0 
L 39.796875 0 
L 39.796875 5.609375 
Q 36.8125 2 32.90625 0.28125 
Q 29 -1.421875 23.78125 -1.421875 
Q 15.140625 -1.421875 10.0625 3.171875 
Q 4.984375 7.765625 4.984375 15.578125 
Q 4.984375 23.640625 10.796875 28.078125 
Q 16.609375 32.515625 27.203125 32.515625 
L 39.796875 32.515625 
L 39.796875 36.078125 
Q 39.796875 42 36.203125 45.234375 
Q 32.625 48.484375 26.125 48.484375 
Q 20.75 48.484375 17.578125 46.046875 
Q 14.40625 43.609375 13.625 38.8125 
L 8.984375 38.8125 
L 8.984375 49.3125 
Q 13.671875 51.3125 18.09375 52.3125 
Q 22.515625 53.328125 26.703125 53.328125 
Q 37.5 53.328125 43.140625 47.96875 
Q 48.78125 42.625 48.78125 32.421875 
z
" id="DejaVuSerif-97"/>
      <path d="M 51.8125 41.796875 
Q 54.390625 47.515625 58.421875 50.421875 
Q 62.453125 53.328125 67.828125 53.328125 
Q 75.984375 53.328125 79.984375 48.265625 
Q 83.984375 43.21875 83.984375 33.015625 
L 83.984375 5.171875 
L 92.09375 5.171875 
L 92.09375 0 
L 67.1875 0 
L 67.1875 5.171875 
L 75 5.171875 
L 75 31.984375 
Q 75 39.9375 72.65625 43.3125 
Q 70.3125 46.6875 64.890625 46.6875 
Q 58.890625 46.6875 55.734375 42.140625 
Q 52.59375 37.59375 52.59375 28.90625 
L 52.59375 5.171875 
L 60.40625 5.171875 
L 60.40625 0 
L 35.796875 0 
L 35.796875 5.171875 
L 43.609375 5.171875 
L 43.609375 32.328125 
Q 43.609375 40.09375 41.265625 43.390625 
Q 38.921875 46.6875 33.5 46.6875 
Q 27.484375 46.6875 24.328125 42.140625 
Q 21.1875 37.59375 21.1875 28.90625 
L 21.1875 5.171875 
L 29 5.171875 
L 29 0 
L 4.109375 0 
L 4.109375 5.171875 
L 12.203125 5.171875 
L 12.203125 46.78125 
L 3.609375 46.78125 
L 3.609375 51.90625 
L 21.1875 51.90625 
L 21.1875 42.671875 
Q 23.6875 47.859375 27.53125 50.59375 
Q 31.390625 53.328125 36.28125 53.328125 
Q 42.328125 53.328125 46.375 50.3125 
Q 50.4375 47.3125 51.8125 41.796875 
z
" id="DejaVuSerif-109"/>
      <path id="DejaVuSerif-32"/>
      <path d="M 20.515625 5.171875 
L 29 5.171875 
L 29 0 
L 2.875 0 
L 2.875 5.171875 
L 11.53125 5.171875 
L 11.53125 70.796875 
L 2.875 70.796875 
L 2.875 75.984375 
L 20.515625 75.984375 
z
" id="DejaVuSerif-108"/>
      <path d="M 51.421875 15.578125 
Q 49.515625 7.28125 44.09375 2.921875 
Q 38.671875 -1.421875 30.078125 -1.421875 
Q 18.75 -1.421875 11.859375 6.078125 
Q 4.984375 13.578125 4.984375 25.984375 
Q 4.984375 38.421875 11.859375 45.875 
Q 18.75 53.328125 30.078125 53.328125 
Q 35.015625 53.328125 39.890625 52.171875 
Q 44.78125 51.03125 49.703125 48.6875 
L 49.703125 35.40625 
L 44.484375 35.40625 
Q 43.453125 42.234375 40.015625 45.359375 
Q 36.578125 48.484375 30.171875 48.484375 
Q 22.90625 48.484375 19.1875 42.84375 
Q 15.484375 37.203125 15.484375 25.984375 
Q 15.484375 14.75 19.171875 9.078125 
Q 22.859375 3.421875 30.171875 3.421875 
Q 35.984375 3.421875 39.453125 6.4375 
Q 42.921875 9.46875 44.1875 15.578125 
z
" id="DejaVuSerif-99"/>
      <path d="M 10.796875 46.6875 
L 2.875 46.6875 
L 2.875 51.90625 
L 10.796875 51.90625 
L 10.796875 68.015625 
L 19.828125 68.015625 
L 19.828125 51.90625 
L 36.71875 51.90625 
L 36.71875 46.6875 
L 19.828125 46.6875 
L 19.828125 13.71875 
Q 19.828125 7.125 21.09375 5.265625 
Q 22.359375 3.421875 25.78125 3.421875 
Q 29.296875 3.421875 30.90625 5.484375 
Q 32.515625 7.5625 32.625 12.203125 
L 39.40625 12.203125 
Q 39.015625 5.125 35.546875 1.84375 
Q 32.078125 -1.421875 25 -1.421875 
Q 17.234375 -1.421875 14.015625 2.015625 
Q 10.796875 5.46875 10.796875 13.71875 
z
" id="DejaVuSerif-116"/>
      <path d="M 47.796875 52 
L 47.796875 39.015625 
L 42.625 39.015625 
Q 42.390625 42.875 40.484375 44.78125 
Q 38.578125 46.6875 34.90625 46.6875 
Q 28.265625 46.6875 24.71875 42.09375 
Q 21.1875 37.5 21.1875 28.90625 
L 21.1875 5.171875 
L 31.59375 5.171875 
L 31.59375 0 
L 4.109375 0 
L 4.109375 5.171875 
L 12.203125 5.171875 
L 12.203125 46.78125 
L 3.609375 46.78125 
L 3.609375 51.90625 
L 21.1875 51.90625 
L 21.1875 42.671875 
Q 23.828125 48.09375 27.96875 50.703125 
Q 32.125 53.328125 38.09375 53.328125 
Q 40.28125 53.328125 42.703125 52.984375 
Q 45.125 52.640625 47.796875 52 
z
" id="DejaVuSerif-114"/>
      <path d="M 30.078125 3.421875 
Q 37.3125 3.421875 40.984375 9.125 
Q 44.671875 14.84375 44.671875 25.984375 
Q 44.671875 37.109375 40.984375 42.796875 
Q 37.3125 48.484375 30.078125 48.484375 
Q 22.859375 48.484375 19.171875 42.796875 
Q 15.484375 37.109375 15.484375 25.984375 
Q 15.484375 14.84375 19.1875 9.125 
Q 22.90625 3.421875 30.078125 3.421875 
z
M 30.078125 -1.421875 
Q 18.75 -1.421875 11.859375 6.078125 
Q 4.984375 13.578125 4.984375 25.984375 
Q 4.984375 38.375 11.84375 45.84375 
Q 18.703125 53.328125 30.078125 53.328125 
Q 41.453125 53.328125 48.3125 45.84375 
Q 55.171875 38.375 55.171875 25.984375 
Q 55.171875 13.578125 48.3125 6.078125 
Q 41.453125 -1.421875 30.078125 -1.421875 
z
" id="DejaVuSerif-111"/>
      <path d="M 4.109375 0 
L 4.109375 5.171875 
L 12.203125 5.171875 
L 12.203125 46.6875 
L 3.609375 46.6875 
L 3.609375 51.90625 
L 21.1875 51.90625 
L 21.1875 42.671875 
Q 23.6875 47.953125 27.65625 50.640625 
Q 31.640625 53.328125 36.921875 53.328125 
Q 45.515625 53.328125 49.5625 48.390625 
Q 53.609375 43.453125 53.609375 33.015625 
L 53.609375 5.171875 
L 61.625 5.171875 
L 61.625 0 
L 36.8125 0 
L 36.8125 5.171875 
L 44.578125 5.171875 
L 44.578125 30.171875 
Q 44.578125 39.703125 42.234375 43.234375 
Q 39.890625 46.78125 33.984375 46.78125 
Q 27.734375 46.78125 24.453125 42.203125 
Q 21.1875 37.640625 21.1875 28.90625 
L 21.1875 5.171875 
L 29 5.171875 
L 29 0 
z
" id="DejaVuSerif-110"/>
      <path d="M 52.484375 46.6875 
L 52.484375 1.125 
Q 52.484375 -10.0625 46.328125 -16.140625 
Q 40.1875 -22.21875 28.8125 -22.21875 
Q 23.6875 -22.21875 19 -21.28125 
Q 14.3125 -20.359375 10.015625 -18.5 
L 10.015625 -7.625 
L 14.703125 -7.625 
Q 15.578125 -12.703125 18.84375 -15.046875 
Q 22.125 -17.390625 28.21875 -17.390625 
Q 36.140625 -17.390625 39.8125 -12.921875 
Q 43.5 -8.453125 43.5 1.125 
L 43.5 8.109375 
Q 40.875 3.21875 36.796875 0.890625 
Q 32.71875 -1.421875 26.703125 -1.421875 
Q 17.140625 -1.421875 11.0625 6.171875 
Q 4.984375 13.765625 4.984375 25.984375 
Q 4.984375 38.1875 11.03125 45.75 
Q 17.09375 53.328125 26.703125 53.328125 
Q 32.71875 53.328125 36.796875 51 
Q 40.875 48.6875 43.5 43.796875 
L 43.5 51.90625 
L 61.078125 51.90625 
L 61.078125 46.6875 
z
M 43.5 28.515625 
Q 43.5 37.84375 39.90625 42.765625 
Q 36.328125 47.703125 29.5 47.703125 
Q 22.5625 47.703125 19.015625 42.234375 
Q 15.484375 36.765625 15.484375 25.984375 
Q 15.484375 15.234375 19.015625 9.71875 
Q 22.5625 4.203125 29.5 4.203125 
Q 36.328125 4.203125 39.90625 9.109375 
Q 43.5 14.015625 43.5 23.390625 
z
" id="DejaVuSerif-103"/>
      <path d="M 21.578125 -9.515625 
L 25 -0.875 
L 5.609375 46.6875 
L -0.296875 46.6875 
L -0.296875 51.90625 
L 23.578125 51.90625 
L 23.578125 46.6875 
L 15.28125 46.6875 
L 29.890625 10.984375 
L 44.484375 46.6875 
L 36.71875 46.6875 
L 36.71875 51.90625 
L 56.203125 51.90625 
L 56.203125 46.6875 
L 50.390625 46.6875 
L 26.609375 -11.71875 
Q 24.171875 -17.78125 21.1875 -20 
Q 18.21875 -22.21875 12.796875 -22.21875 
Q 10.5 -22.21875 8.078125 -21.828125 
Q 5.671875 -21.4375 3.21875 -20.703125 
L 3.21875 -10.796875 
L 7.8125 -10.796875 
Q 8.109375 -14.109375 9.5 -15.546875 
Q 10.890625 -17 13.8125 -17 
Q 16.5 -17 18.140625 -15.5 
Q 19.78125 -14.015625 21.578125 -9.515625 
z
" id="DejaVuSerif-121"/>
      <path d="M -1.515625 0 
L -0.53125 5.171875 
L 8.734375 5.171875 
L 20.90625 67.671875 
L 11.625 67.671875 
L 12.640625 72.90625 
L 71.34375 72.90625 
L 68.21875 56.6875 
L 62.203125 56.6875 
L 64.15625 66.890625 
L 30.671875 66.890625 
L 25.921875 42.484375 
L 49.8125 42.484375 
L 51.5625 51.609375 
L 57.5625 51.609375 
L 52.875 27.390625 
L 46.875 27.390625 
L 48.640625 36.53125 
L 24.75 36.53125 
L 18.84375 6 
L 53.125 6 
L 55.078125 16.21875 
L 61.078125 16.21875 
L 57.953125 0 
z
" id="DejaVuSerif-Italic-69"/>
      <path d="M 18.015625 70.796875 
L 9.375 70.796875 
L 10.40625 75.984375 
L 28.03125 75.984375 
L 21.78125 43.796875 
Q 25.34375 48.6875 29.875 51 
Q 34.421875 53.328125 40.4375 53.328125 
Q 50 53.328125 54.59375 45.75 
Q 57.625 40.765625 57.625 33.796875 
Q 57.625 30.125 56.78125 25.984375 
Q 54.390625 13.765625 46.875 6.171875 
Q 39.359375 -1.421875 29.78125 -1.421875 
Q 23.78125 -1.421875 20.140625 0.890625 
Q 16.5 3.21875 14.84375 8.109375 
L 13.28125 0 
L 4.296875 0 
z
M 17.828125 23.390625 
Q 17.046875 19.53125 17.046875 16.453125 
Q 17.046875 12.015625 18.609375 9.078125 
Q 21.234375 4.203125 28.078125 4.203125 
Q 34.96875 4.203125 39.578125 9.71875 
Q 44.1875 15.234375 46.296875 25.984375 
Q 47.265625 30.90625 47.265625 34.765625 
Q 47.265625 39.265625 45.90625 42.234375 
Q 43.453125 47.703125 36.53125 47.703125 
Q 29.6875 47.703125 25.140625 42.765625 
Q 20.609375 37.84375 18.796875 28.515625 
z
" id="DejaVuSerif-Italic-98"/>
      <path d="M 3.609375 -9.71875 
Q 8.203125 -6.34375 10.34375 -1.78125 
Q 12.5 2.78125 12.5 9.28125 
L 12.5 11.078125 
L 22.125 11.078125 
Q 21.734375 2.734375 18.1875 -3.25 
Q 14.65625 -9.234375 7.515625 -13.625 
z
" id="DejaVuSerif-44"/>
      <path d="M 33.015625 32.421875 
L 47.40625 5.171875 
L 54.890625 5.171875 
L 53.90625 0 
L 39.5 0 
L 25.34375 26.515625 
L 17 19.921875 
L 13.140625 0 
L 4.15625 0 
L 17.921875 70.796875 
L 9.28125 70.796875 
L 10.25 75.984375 
L 27.875 75.984375 
L 18.265625 26.515625 
L 44.09375 46.6875 
L 36.625 46.6875 
L 37.59375 51.90625 
L 52.203125 51.90625 
L 51.21875 46.6875 
z
" id="DejaVuSerif-Italic-107"/>
      <path d="M 14.65625 19.921875 
Q 14.453125 18.0625 14.453125 16.40625 
Q 14.453125 11.8125 16.109375 8.796875 
Q 19 3.421875 26.703125 3.421875 
Q 32.375 3.421875 35.15625 5.125 
Q 40.140625 8.203125 41.3125 12.15625 
L 47.90625 12.15625 
Q 45.953125 5.953125 38.671875 1.609375 
Q 33.59375 -1.421875 23.53125 -1.421875 
Q 13.484375 -1.421875 8.0625 6.0625 
Q 4.25 11.28125 4.25 18.84375 
Q 4.25 22.171875 4.984375 25.921875 
Q 7.375 38.28125 15.625 45.796875 
Q 23.875 53.328125 35.59375 53.328125 
Q 54.6875 53.328125 54.6875 39.796875 
Q 54.6875 29.890625 44.671875 25.046875 
Q 34.46875 20.125 14.65625 19.921875 
z
M 39.703125 30.859375 
Q 45.171875 34.078125 45.171875 40.140625 
Q 45.171875 48.484375 34.078125 48.484375 
Q 27.546875 48.484375 23 43.5 
Q 18.453125 38.53125 15.671875 25.09375 
Q 31.34375 25.828125 39.703125 30.859375 
z
" id="DejaVuSerif-Italic-101"/>
      <path d="M 23.53125 67.671875 
L 34.234375 11.71875 
L 66.546875 67.671875 
L 58.34375 67.671875 
L 59.375 72.90625 
L 80.765625 72.90625 
L 79.734375 67.671875 
L 72.65625 67.671875 
L 33.5 0 
L 25.09375 0 
L 12.359375 67.671875 
L 5.078125 67.671875 
L 6.109375 72.90625 
L 32.671875 72.90625 
L 31.640625 67.671875 
z
" id="DejaVuSerif-Italic-86"/>
     </defs>
     <g transform="translate(159.71 335.862125)scale(0.1 -0.1)">
      <use transform="translate(0 0.015625)" xlink:href="#DejaVuSerif-66"/>
      <use transform="translate(73.486328 0.015625)" xlink:href="#DejaVuSerif-101"/>
      <use transform="translate(132.666016 0.015625)" xlink:href="#DejaVuSerif-97"/>
      <use transform="translate(192.285156 0.015625)" xlink:href="#DejaVuSerif-109"/>
      <use transform="translate(287.109375 0.015625)" xlink:href="#DejaVuSerif-32"/>
      <use transform="translate(318.896484 0.015625)" xlink:href="#DejaVuSerif-101"/>
      <use transform="translate(378.076172 0.015625)" xlink:href="#DejaVuSerif-108"/>
      <use transform="translate(410.058594 0.015625)" xlink:href="#DejaVuSerif-101"/>
      <use transform="translate(469.238281 0.015625)" xlink:href="#DejaVuSerif-99"/>
      <use transform="translate(525.244141 0.015625)" xlink:href="#DejaVuSerif-116"/>
      <use transform="translate(565.429688 0.015625)" xlink:href="#DejaVuSerif-114"/>
      <use transform="translate(613.232422 0.015625)" xlink:href="#DejaVuSerif-111"/>
      <use transform="translate(673.4375 0.015625)" xlink:href="#DejaVuSerif-110"/>
      <use transform="translate(737.841797 0.015625)" xlink:href="#DejaVuSerif-32"/>
      <use transform="translate(769.628906 0.015625)" xlink:href="#DejaVuSerif-101"/>
      <use transform="translate(828.808594 0.015625)" xlink:href="#DejaVuSerif-110"/>
      <use transform="translate(893.212891 0.015625)" xlink:href="#DejaVuSerif-101"/>
      <use transform="translate(952.392578 0.015625)" xlink:href="#DejaVuSerif-114"/>
      <use transform="translate(1000.195312 0.015625)" xlink:href="#DejaVuSerif-103"/>
      <use transform="translate(1064.208984 0.015625)" xlink:href="#DejaVuSerif-121"/>
      <use transform="translate(1120.703125 0.015625)" xlink:href="#DejaVuSerif-32"/>
      <use transform="translate(1152.490234 0.015625)" xlink:href="#DejaVuSerif-Italic-69"/>
      <use transform="translate(1225.488281 -15.55625)scale(0.7)" xlink:href="#DejaVuSerif-Italic-98"/>
      <use transform="translate(1272.893164 0.015625)" xlink:href="#DejaVuSerif-44"/>
      <use transform="translate(1304.680273 0.015625)" xlink:href="#DejaVuSerif-32"/>
      <use transform="translate(1336.467383 0.015625)" xlink:href="#DejaVuSerif-Italic-107"/>
      <use transform="translate(1397.063086 0.015625)" xlink:href="#DejaVuSerif-Italic-101"/>
      <use transform="translate(1456.242773 0.015625)" xlink:href="#DejaVuSerif-Italic-86"/>
     </g>
    </g>
   </g>
   <g id="matplotlib.axis_2">
    <g id="ytick_1">
     <g id="line2d_8">
      <defs>
       <path d="M 0 0 
L -3.5 0 
" id="m920056eaf0" style="stroke:#000000;stroke-width:0.8;"/>
      </defs>
      <g>
       <use style="stroke:#000000;stroke-width:0.8;" x="57.6" xlink:href="#m920056eaf0" y="261.210844"/>
      </g>
     </g>
     <g id="text_9">
      <!-- 0.2 -->
      <defs>
       <path d="M 9.421875 5.078125 
Q 9.421875 7.8125 11.28125 9.71875 
Q 13.140625 11.625 15.921875 11.625 
Q 18.609375 11.625 20.5 9.71875 
Q 22.40625 7.8125 22.40625 5.078125 
Q 22.40625 2.390625 20.5 0.484375 
Q 18.609375 -1.421875 15.921875 -1.421875 
Q 13.140625 -1.421875 11.28125 0.453125 
Q 9.421875 2.34375 9.421875 5.078125 
z
" id="DejaVuSerif-46"/>
      </defs>
      <g transform="translate(34.696875 265.010063)scale(0.1 -0.1)">
       <use xlink:href="#DejaVuSerif-48"/>
       <use x="63.623047" xlink:href="#DejaVuSerif-46"/>
       <use x="95.410156" xlink:href="#DejaVuSerif-50"/>
      </g>
     </g>
    </g>
    <g id="ytick_2">
     <g id="line2d_9">
      <g>
       <use style="stroke:#000000;stroke-width:0.8;" x="57.6" xlink:href="#m920056eaf0" y="209.300133"/>
      </g>
     </g>
     <g id="text_10">
      <!-- 0.4 -->
      <defs>
       <path d="M 34.90625 24.703125 
L 34.90625 63.484375 
L 10.015625 24.703125 
z
M 56.390625 0 
L 23.1875 0 
L 23.1875 5.171875 
L 34.90625 5.171875 
L 34.90625 19.484375 
L 3.078125 19.484375 
L 3.078125 24.8125 
L 35.015625 74.21875 
L 44.671875 74.21875 
L 44.671875 24.703125 
L 58.59375 24.703125 
L 58.59375 19.484375 
L 44.671875 19.484375 
L 44.671875 5.171875 
L 56.390625 5.171875 
z
" id="DejaVuSerif-52"/>
      </defs>
      <g transform="translate(34.696875 213.099352)scale(0.1 -0.1)">
       <use xlink:href="#DejaVuSerif-48"/>
       <use x="63.623047" xlink:href="#DejaVuSerif-46"/>
       <use x="95.410156" xlink:href="#DejaVuSerif-52"/>
      </g>
     </g>
    </g>
    <g id="ytick_3">
     <g id="line2d_10">
      <g>
       <use style="stroke:#000000;stroke-width:0.8;" x="57.6" xlink:href="#m920056eaf0" y="157.389422"/>
      </g>
     </g>
     <g id="text_11">
      <!-- 0.6 -->
      <defs>
       <path d="M 32.71875 3.421875 
Q 39.59375 3.421875 43.296875 8.46875 
Q 47.015625 13.53125 47.015625 23 
Q 47.015625 32.46875 43.296875 37.515625 
Q 39.59375 42.578125 32.71875 42.578125 
Q 25.734375 42.578125 22.0625 37.6875 
Q 18.40625 32.8125 18.40625 23.578125 
Q 18.40625 13.875 22.109375 8.640625 
Q 25.828125 3.421875 32.71875 3.421875 
z
M 16.796875 40.140625 
Q 20.125 43.796875 24.3125 45.59375 
Q 28.515625 47.40625 33.796875 47.40625 
Q 44.671875 47.40625 51 40.859375 
Q 57.328125 34.328125 57.328125 23 
Q 57.328125 11.921875 50.515625 5.25 
Q 43.703125 -1.421875 32.328125 -1.421875 
Q 19.96875 -1.421875 13.328125 7.78125 
Q 6.6875 17 6.6875 34.078125 
Q 6.6875 53.21875 14.546875 63.71875 
Q 22.40625 74.21875 36.71875 74.21875 
Q 40.578125 74.21875 44.828125 73.484375 
Q 49.078125 72.75 53.515625 71.296875 
L 53.515625 59.28125 
L 48 59.28125 
Q 47.40625 64.203125 44.234375 66.796875 
Q 41.0625 69.390625 35.6875 69.390625 
Q 26.21875 69.390625 21.578125 62.203125 
Q 16.9375 55.03125 16.796875 40.140625 
z
" id="DejaVuSerif-54"/>
      </defs>
      <g transform="translate(34.696875 161.188641)scale(0.1 -0.1)">
       <use xlink:href="#DejaVuSerif-48"/>
       <use x="63.623047" xlink:href="#DejaVuSerif-46"/>
       <use x="95.410156" xlink:href="#DejaVuSerif-54"/>
      </g>
     </g>
    </g>
    <g id="ytick_4">
     <g id="line2d_11">
      <g>
       <use style="stroke:#000000;stroke-width:0.8;" x="57.6" xlink:href="#m920056eaf0" y="105.478711"/>
      </g>
     </g>
     <g id="text_12">
      <!-- 0.8 -->
      <defs>
       <path d="M 46.578125 19.921875 
Q 46.578125 27.734375 42.6875 32.046875 
Q 38.8125 36.375 31.78125 36.375 
Q 24.75 36.375 20.875 32.046875 
Q 17 27.734375 17 19.921875 
Q 17 12.0625 20.875 7.734375 
Q 24.75 3.421875 31.78125 3.421875 
Q 38.8125 3.421875 42.6875 7.734375 
Q 46.578125 12.0625 46.578125 19.921875 
z
M 44.578125 55.328125 
Q 44.578125 61.96875 41.203125 65.671875 
Q 37.84375 69.390625 31.78125 69.390625 
Q 25.78125 69.390625 22.390625 65.671875 
Q 19 61.96875 19 55.328125 
Q 19 48.640625 22.390625 44.921875 
Q 25.78125 41.21875 31.78125 41.21875 
Q 37.84375 41.21875 41.203125 44.921875 
Q 44.578125 48.640625 44.578125 55.328125 
z
M 39.3125 38.8125 
Q 47.609375 37.703125 52.25 32.6875 
Q 56.890625 27.6875 56.890625 19.921875 
Q 56.890625 9.671875 50.390625 4.125 
Q 43.890625 -1.421875 31.78125 -1.421875 
Q 19.734375 -1.421875 13.203125 4.125 
Q 6.6875 9.671875 6.6875 19.921875 
Q 6.6875 27.6875 11.328125 32.6875 
Q 15.96875 37.703125 24.3125 38.8125 
Q 16.9375 40.140625 13 44.40625 
Q 9.078125 48.6875 9.078125 55.328125 
Q 9.078125 64.109375 15.125 69.15625 
Q 21.1875 74.21875 31.78125 74.21875 
Q 42.390625 74.21875 48.4375 69.15625 
Q 54.5 64.109375 54.5 55.328125 
Q 54.5 48.6875 50.5625 44.40625 
Q 46.625 40.140625 39.3125 38.8125 
z
" id="DejaVuSerif-56"/>
      </defs>
      <g transform="translate(34.696875 109.27793)scale(0.1 -0.1)">
       <use xlink:href="#DejaVuSerif-48"/>
       <use x="63.623047" xlink:href="#DejaVuSerif-46"/>
       <use x="95.410156" xlink:href="#DejaVuSerif-56"/>
      </g>
     </g>
    </g>
    <g id="ytick_5">
     <g id="line2d_12">
      <g>
       <use style="stroke:#000000;stroke-width:0.8;" x="57.6" xlink:href="#m920056eaf0" y="53.568"/>
      </g>
     </g>
     <g id="text_13">
      <!-- 1.0 -->
      <g transform="translate(34.696875 57.367219)scale(0.1 -0.1)">
       <use xlink:href="#DejaVuSerif-49"/>
       <use x="63.623047" xlink:href="#DejaVuSerif-46"/>
       <use x="95.410156" xlink:href="#DejaVuSerif-48"/>
      </g>
     </g>
    </g>
    <g id="text_14">
     <!-- Normalized collection efficiency, arb. units -->
     <defs>
      <path d="M 4.890625 0 
L 4.890625 5.171875 
L 14.703125 5.171875 
L 14.703125 67.671875 
L 4.890625 67.671875 
L 4.890625 72.90625 
L 23.578125 72.90625 
L 67.28125 15.375 
L 67.28125 67.671875 
L 57.515625 67.671875 
L 57.515625 72.90625 
L 83.109375 72.90625 
L 83.109375 67.671875 
L 73.296875 67.671875 
L 73.296875 -1.421875 
L 67.390625 -1.421875 
L 20.703125 60.015625 
L 20.703125 5.171875 
L 30.515625 5.171875 
L 30.515625 0 
z
" id="DejaVuSerif-78"/>
      <path d="M 9.71875 68.015625 
Q 9.71875 70.265625 11.34375 71.921875 
Q 12.984375 73.578125 15.28125 73.578125 
Q 17.53125 73.578125 19.15625 71.921875 
Q 20.796875 70.265625 20.796875 68.015625 
Q 20.796875 65.71875 19.1875 64.109375 
Q 17.578125 62.5 15.28125 62.5 
Q 12.984375 62.5 11.34375 64.109375 
Q 9.71875 65.71875 9.71875 68.015625 
z
M 21.1875 5.171875 
L 29.6875 5.171875 
L 29.6875 0 
L 3.609375 0 
L 3.609375 5.171875 
L 12.203125 5.171875 
L 12.203125 46.6875 
L 3.609375 46.6875 
L 3.609375 51.90625 
L 21.1875 51.90625 
z
" id="DejaVuSerif-105"/>
      <path d="M 4 0 
L 4 4.203125 
L 36.53125 46.6875 
L 10.796875 46.6875 
L 10.796875 37.703125 
L 5.609375 37.703125 
L 5.609375 51.90625 
L 48.09375 51.90625 
L 48.09375 47.703125 
L 15.578125 5.171875 
L 43.796875 5.171875 
L 43.796875 14.59375 
L 49.03125 14.59375 
L 49.03125 0 
z
" id="DejaVuSerif-122"/>
      <path d="M 52.484375 5.171875 
L 61.078125 5.171875 
L 61.078125 0 
L 43.5 0 
L 43.5 8.109375 
Q 40.875 3.21875 36.796875 0.890625 
Q 32.71875 -1.421875 26.703125 -1.421875 
Q 17.140625 -1.421875 11.0625 6.171875 
Q 4.984375 13.765625 4.984375 25.984375 
Q 4.984375 38.1875 11.03125 45.75 
Q 17.09375 53.328125 26.703125 53.328125 
Q 32.71875 53.328125 36.796875 51 
Q 40.875 48.6875 43.5 43.796875 
L 43.5 70.796875 
L 35.015625 70.796875 
L 35.015625 75.984375 
L 52.484375 75.984375 
z
M 43.5 23.390625 
L 43.5 28.515625 
Q 43.5 37.84375 39.90625 42.765625 
Q 36.328125 47.703125 29.5 47.703125 
Q 22.5625 47.703125 19.015625 42.234375 
Q 15.484375 36.765625 15.484375 25.984375 
Q 15.484375 15.234375 19.015625 9.71875 
Q 22.5625 4.203125 29.5 4.203125 
Q 36.328125 4.203125 39.90625 9.109375 
Q 43.5 14.015625 43.5 23.390625 
z
" id="DejaVuSerif-100"/>
      <path d="M 43.015625 63.71875 
L 38.28125 63.71875 
Q 38.234375 67.390625 36.203125 69.28125 
Q 34.1875 71.1875 30.328125 71.1875 
Q 25.296875 71.1875 23.234375 68.421875 
Q 21.1875 65.671875 21.1875 58.59375 
L 21.1875 51.90625 
L 35.6875 51.90625 
L 35.6875 46.6875 
L 21.1875 46.6875 
L 21.1875 5.171875 
L 32.71875 5.171875 
L 32.71875 0 
L 3.609375 0 
L 3.609375 5.171875 
L 12.203125 5.171875 
L 12.203125 46.6875 
L 3.609375 46.6875 
L 3.609375 51.90625 
L 12.203125 51.90625 
L 12.203125 58.40625 
Q 12.203125 67.09375 16.71875 71.53125 
Q 21.234375 75.984375 29.984375 75.984375 
Q 33.25 75.984375 36.515625 75.390625 
Q 39.796875 74.8125 43.015625 73.578125 
z
" id="DejaVuSerif-102"/>
      <path d="M 11.53125 5.171875 
L 11.53125 70.796875 
L 2.875 70.796875 
L 2.875 75.984375 
L 20.515625 75.984375 
L 20.515625 43.796875 
Q 23.140625 48.6875 27.21875 51 
Q 31.296875 53.328125 37.3125 53.328125 
Q 46.875 53.328125 52.921875 45.75 
Q 58.984375 38.1875 58.984375 25.984375 
Q 58.984375 13.765625 52.921875 6.171875 
Q 46.875 -1.421875 37.3125 -1.421875 
Q 31.296875 -1.421875 27.21875 0.890625 
Q 23.140625 3.21875 20.515625 8.109375 
L 20.515625 0 
L 2.875 0 
L 2.875 5.171875 
z
M 20.515625 23.390625 
Q 20.515625 14.015625 24.09375 9.109375 
Q 27.6875 4.203125 34.515625 4.203125 
Q 41.40625 4.203125 44.9375 9.71875 
Q 48.484375 15.234375 48.484375 25.984375 
Q 48.484375 36.765625 44.9375 42.234375 
Q 41.40625 47.703125 34.515625 47.703125 
Q 27.6875 47.703125 24.09375 42.765625 
Q 20.515625 37.84375 20.515625 28.515625 
z
" id="DejaVuSerif-98"/>
      <path d="M 35.40625 51.90625 
L 52.203125 51.90625 
L 52.203125 5.171875 
L 60.6875 5.171875 
L 60.6875 0 
L 43.21875 0 
L 43.21875 9.1875 
Q 40.71875 4 36.765625 1.28125 
Q 32.8125 -1.421875 27.59375 -1.421875 
Q 18.953125 -1.421875 14.875 3.484375 
Q 10.796875 8.40625 10.796875 18.890625 
L 10.796875 46.6875 
L 2.6875 46.6875 
L 2.6875 51.90625 
L 19.828125 51.90625 
L 19.828125 21.6875 
Q 19.828125 12.203125 22.140625 8.6875 
Q 24.46875 5.171875 30.421875 5.171875 
Q 36.671875 5.171875 39.9375 9.765625 
Q 43.21875 14.359375 43.21875 23.09375 
L 43.21875 46.6875 
L 35.40625 46.6875 
z
" id="DejaVuSerif-117"/>
      <path d="M 5.609375 2.875 
L 5.609375 14.984375 
L 10.796875 14.984375 
Q 10.984375 9.1875 14.421875 6.296875 
Q 17.875 3.421875 24.609375 3.421875 
Q 30.671875 3.421875 33.84375 5.6875 
Q 37.015625 7.953125 37.015625 12.3125 
Q 37.015625 15.71875 34.6875 17.8125 
Q 32.375 19.921875 24.90625 22.3125 
L 18.40625 24.515625 
Q 11.71875 26.65625 8.71875 29.875 
Q 5.71875 33.109375 5.71875 38.09375 
Q 5.71875 45.21875 10.9375 49.265625 
Q 16.15625 53.328125 25.390625 53.328125 
Q 29.5 53.328125 34.03125 52.25 
Q 38.578125 51.171875 43.40625 49.125 
L 43.40625 37.796875 
L 38.234375 37.796875 
Q 38.03125 42.828125 34.703125 45.65625 
Q 31.390625 48.484375 25.6875 48.484375 
Q 20.015625 48.484375 17.109375 46.484375 
Q 14.203125 44.484375 14.203125 40.484375 
Q 14.203125 37.203125 16.40625 35.21875 
Q 18.609375 33.25 25.203125 31.203125 
L 32.328125 29 
Q 39.703125 26.703125 42.9375 23.265625 
Q 46.1875 19.828125 46.1875 14.40625 
Q 46.1875 7.03125 40.546875 2.796875 
Q 34.90625 -1.421875 25 -1.421875 
Q 19.96875 -1.421875 15.1875 -0.34375 
Q 10.40625 0.734375 5.609375 2.875 
z
" id="DejaVuSerif-115"/>
     </defs>
     <g transform="translate(28.475 283.800656)rotate(-90)scale(0.1 -0.1)">
      <use xlink:href="#DejaVuSerif-78"/>
      <use x="87.5" xlink:href="#DejaVuSerif-111"/>
      <use x="147.705078" xlink:href="#DejaVuSerif-114"/>
      <use x="195.507812" xlink:href="#DejaVuSerif-109"/>
      <use x="290.332031" xlink:href="#DejaVuSerif-97"/>
      <use x="349.951172" xlink:href="#DejaVuSerif-108"/>
      <use x="381.933594" xlink:href="#DejaVuSerif-105"/>
      <use x="413.916016" xlink:href="#DejaVuSerif-122"/>
      <use x="466.601562" xlink:href="#DejaVuSerif-101"/>
      <use x="525.78125" xlink:href="#DejaVuSerif-100"/>
      <use x="589.794922" xlink:href="#DejaVuSerif-32"/>
      <use x="621.582031" xlink:href="#DejaVuSerif-99"/>
      <use x="677.587891" xlink:href="#DejaVuSerif-111"/>
      <use x="737.792969" xlink:href="#DejaVuSerif-108"/>
      <use x="769.775391" xlink:href="#DejaVuSerif-108"/>
      <use x="801.757812" xlink:href="#DejaVuSerif-101"/>
      <use x="860.9375" xlink:href="#DejaVuSerif-99"/>
      <use x="916.943359" xlink:href="#DejaVuSerif-116"/>
      <use x="957.128906" xlink:href="#DejaVuSerif-105"/>
      <use x="989.111328" xlink:href="#DejaVuSerif-111"/>
      <use x="1049.316406" xlink:href="#DejaVuSerif-110"/>
      <use x="1113.720703" xlink:href="#DejaVuSerif-32"/>
      <use x="1145.507812" xlink:href="#DejaVuSerif-101"/>
      <use x="1204.6875" xlink:href="#DejaVuSerif-102"/>
      <use x="1241.699219" xlink:href="#DejaVuSerif-102"/>
      <use x="1278.710938" xlink:href="#DejaVuSerif-105"/>
      <use x="1310.693359" xlink:href="#DejaVuSerif-99"/>
      <use x="1366.699219" xlink:href="#DejaVuSerif-105"/>
      <use x="1398.681641" xlink:href="#DejaVuSerif-101"/>
      <use x="1457.861328" xlink:href="#DejaVuSerif-110"/>
      <use x="1522.265625" xlink:href="#DejaVuSerif-99"/>
      <use x="1578.271484" xlink:href="#DejaVuSerif-121"/>
      <use x="1634.5625" xlink:href="#DejaVuSerif-44"/>
      <use x="1666.349609" xlink:href="#DejaVuSerif-32"/>
      <use x="1698.136719" xlink:href="#DejaVuSerif-97"/>
      <use x="1757.755859" xlink:href="#DejaVuSerif-114"/>
      <use x="1805.558594" xlink:href="#DejaVuSerif-98"/>
      <use x="1869.572266" xlink:href="#DejaVuSerif-46"/>
      <use x="1901.359375" xlink:href="#DejaVuSerif-32"/>
      <use x="1933.146484" xlink:href="#DejaVuSerif-117"/>
      <use x="1997.550781" xlink:href="#DejaVuSerif-110"/>
      <use x="2061.955078" xlink:href="#DejaVuSerif-105"/>
      <use x="2093.9375" xlink:href="#DejaVuSerif-116"/>
      <use x="2134.123047" xlink:href="#DejaVuSerif-115"/>
     </g>
    </g>
   </g>
   <g id="line2d_13">
    <defs>
     <path d="M 0 -5.5 
L -1.234827 -1.699593 
L -5.230811 -1.699593 
L -1.997992 0.649187 
L -3.232819 4.449593 
L -0 2.100813 
L 3.232819 4.449593 
L 1.997992 0.649187 
L 5.230811 -1.699593 
L 1.234827 -1.699593 
z
" id="med44d77e43" style="stroke:#f2bb00;stroke-linejoin:bevel;"/>
    </defs>
    <g clip-path="url(#p2f51211ff7)">
     <use style="fill-opacity:0;stroke:#f2bb00;stroke-linejoin:bevel;" x="73.832727" xlink:href="#med44d77e43" y="156.894445"/>
     <use style="fill-opacity:0;stroke:#f2bb00;stroke-linejoin:bevel;" x="83.288685" xlink:href="#med44d77e43" y="91.928716"/>
     <use style="fill-opacity:0;stroke:#f2bb00;stroke-linejoin:bevel;" x="92.744643" xlink:href="#med44d77e43" y="80.791734"/>
     <use style="fill-opacity:0;stroke:#f2bb00;stroke-linejoin:bevel;" x="112.181889" xlink:href="#med44d77e43" y="53.568"/>
     <use style="fill-opacity:0;stroke:#f2bb00;stroke-linejoin:bevel;" x="131.093804" xlink:href="#med44d77e43" y="88.83511"/>
     <use style="fill-opacity:0;stroke:#f2bb00;stroke-linejoin:bevel;" x="150.005719" xlink:href="#med44d77e43" y="140.807693"/>
     <use style="fill-opacity:0;stroke:#f2bb00;stroke-linejoin:bevel;" x="169.442966" xlink:href="#med44d77e43" y="184.118179"/>
     <use style="fill-opacity:0;stroke:#f2bb00;stroke-linejoin:bevel;" x="188.354881" xlink:href="#med44d77e43" y="178.549688"/>
     <use style="fill-opacity:0;stroke:#f2bb00;stroke-linejoin:bevel;" x="207.266796" xlink:href="#med44d77e43" y="228.666107"/>
     <use style="fill-opacity:0;stroke:#f2bb00;stroke-linejoin:bevel;" x="226.704042" xlink:href="#med44d77e43" y="247.846465"/>
     <use style="fill-opacity:0;stroke:#f2bb00;stroke-linejoin:bevel;" x="245.615958" xlink:href="#med44d77e43" y="258.364726"/>
     <use style="fill-opacity:0;stroke:#f2bb00;stroke-linejoin:bevel;" x="265.053204" xlink:href="#med44d77e43" y="262.695775"/>
     <use style="fill-opacity:0;stroke:#f2bb00;stroke-linejoin:bevel;" x="283.965119" xlink:href="#med44d77e43" y="271.357872"/>
     <use style="fill-opacity:0;stroke:#f2bb00;stroke-linejoin:bevel;" x="303.402365" xlink:href="#med44d77e43" y="274.451478"/>
     <use style="fill-opacity:0;stroke:#f2bb00;stroke-linejoin:bevel;" x="322.314281" xlink:href="#med44d77e43" y="282.494854"/>
     <use style="fill-opacity:0;stroke:#f2bb00;stroke-linejoin:bevel;" x="341.226196" xlink:href="#med44d77e43" y="284.351018"/>
     <use style="fill-opacity:0;stroke:#f2bb00;stroke-linejoin:bevel;" x="360.663442" xlink:href="#med44d77e43" y="289.919509"/>
     <use style="fill-opacity:0;stroke:#f2bb00;stroke-linejoin:bevel;" x="379.575357" xlink:href="#med44d77e43" y="291.775673"/>
     <use style="fill-opacity:0;stroke:#f2bb00;stroke-linejoin:bevel;" x="398.487273" xlink:href="#med44d77e43" y="295.488"/>
    </g>
   </g>
   <g id="line2d_14">
    <path clip-path="url(#p2f51211ff7)" d="M 73.832727 162.919637 
L 83.288685 85.528837 
L 92.744643 53.568 
L 112.181889 59.968388 
L 131.093804 97.494804 
L 150.005719 137.171517 
L 169.442966 172.594895 
L 188.354881 200.401508 
L 207.266796 222.126252 
L 226.704042 239.289974 
L 245.615958 252.125445 
L 265.053204 262.341895 
L 283.965119 270.119843 
L 303.402365 276.451806 
L 322.314281 281.385975 
L 341.226196 285.393698 
L 360.663442 288.766887 
L 379.575357 291.482828 
L 398.487273 293.75882 
" style="fill:none;stroke:#f2bb00;stroke-linecap:square;stroke-width:1.5;"/>
   </g>
   <g id="patch_3">
    <path d="M 57.6 307.584 
L 57.6 41.472 
" style="fill:none;stroke:#000000;stroke-linecap:square;stroke-linejoin:miter;stroke-width:0.8;"/>
   </g>
   <g id="patch_4">
    <path d="M 414.72 307.584 
L 414.72 41.472 
" style="fill:none;stroke:#000000;stroke-linecap:square;stroke-linejoin:miter;stroke-width:0.8;"/>
   </g>
   <g id="patch_5">
    <path d="M 57.6 307.584 
L 414.72 307.584 
" style="fill:none;stroke:#000000;stroke-linecap:square;stroke-linejoin:miter;stroke-width:0.8;"/>
   </g>
   <g id="patch_6">
    <path d="M 57.6 41.472 
L 414.72 41.472 
" style="fill:none;stroke:#000000;stroke-linecap:square;stroke-linejoin:miter;stroke-width:0.8;"/>
   </g>
   <g id="legend_1">
    <g id="patch_7">
     <path d="M 295.62 64.150125 
L 407.72 64.150125 
Q 409.72 64.150125 409.72 62.150125 
L 409.72 48.472 
Q 409.72 46.472 407.72 46.472 
L 295.62 46.472 
Q 293.62 46.472 293.62 48.472 
L 293.62 62.150125 
Q 293.62 64.150125 295.62 64.150125 
z
" style="fill:#ffffff;opacity:0.8;stroke:#cccccc;stroke-linejoin:miter;"/>
    </g>
    <g id="line2d_15">
     <path d="M 297.62 54.570438 
L 317.62 54.570438 
" style="fill:none;stroke:#f2bb00;stroke-linecap:square;stroke-width:1.5;"/>
    </g>
    <g id="line2d_16"/>
    <g id="text_15">
     <!-- ha, $L_D = 140 \,nm$ -->
     <defs>
      <path d="M 4.109375 0 
L 4.109375 5.171875 
L 12.203125 5.171875 
L 12.203125 70.796875 
L 3.609375 70.796875 
L 3.609375 75.984375 
L 21.1875 75.984375 
L 21.1875 42.671875 
Q 23.6875 47.953125 27.65625 50.640625 
Q 31.640625 53.328125 36.921875 53.328125 
Q 45.515625 53.328125 49.5625 48.390625 
Q 53.609375 43.453125 53.609375 33.015625 
L 53.609375 5.171875 
L 61.625 5.171875 
L 61.625 0 
L 36.8125 0 
L 36.8125 5.171875 
L 44.578125 5.171875 
L 44.578125 30.171875 
Q 44.578125 39.703125 42.25 43.1875 
Q 39.9375 46.6875 33.984375 46.6875 
Q 27.734375 46.6875 24.453125 42.140625 
Q 21.1875 37.59375 21.1875 28.90625 
L 21.1875 5.171875 
L 29 5.171875 
L 29 0 
z
" id="DejaVuSerif-104"/>
      <path d="M -1.515625 0 
L -0.53125 5.171875 
L 8.734375 5.171875 
L 20.90625 67.671875 
L 11.625 67.671875 
L 12.640625 72.90625 
L 41.109375 72.90625 
L 40.09375 67.671875 
L 30.8125 67.671875 
L 18.84375 6 
L 52.15625 6 
L 54.5 18.21875 
L 60.5 18.21875 
L 56.984375 0 
z
" id="DejaVuSerif-Italic-76"/>
      <path d="M 18.65625 5.171875 
L 27.734375 5.171875 
Q 41.9375 5.171875 51.109375 13.28125 
Q 60.296875 21.390625 63.25 36.515625 
Q 66.21875 51.65625 60.1875 59.65625 
Q 54.15625 67.671875 39.890625 67.671875 
L 30.8125 67.671875 
z
M -1.515625 0 
L -0.53125 5.171875 
L 8.734375 5.171875 
L 20.90625 67.671875 
L 11.625 67.671875 
L 12.640625 72.90625 
L 41.65625 72.90625 
Q 60.5 72.90625 69.15625 63.28125 
Q 77.828125 53.65625 74.46875 36.53125 
Q 71.140625 19.34375 58.71875 9.671875 
Q 46.296875 0 27.484375 0 
z
" id="DejaVuSerif-Italic-68"/>
      <path d="M 10.59375 45.21875 
L 73.1875 45.21875 
L 73.1875 37.40625 
L 10.59375 37.40625 
z
M 10.59375 25.296875 
L 73.1875 25.296875 
L 73.1875 17.484375 
L 10.59375 17.484375 
z
" id="DejaVuSerif-61"/>
      <path d="M 7.03125 0 
L 16.109375 46.6875 
L 7.515625 46.6875 
L 8.5 51.90625 
L 26.078125 51.90625 
L 24.3125 42.671875 
Q 27.828125 47.953125 32.3125 50.640625 
Q 36.8125 53.328125 42.09375 53.328125 
Q 50.6875 53.328125 53.8125 48.390625 
Q 55.671875 45.40625 55.671875 40.4375 
Q 55.671875 37.15625 54.828125 33.015625 
L 49.421875 5.171875 
L 57.421875 5.171875 
L 56.453125 0 
L 39.40625 0 
L 45.265625 30.171875 
Q 46.234375 35.203125 46.234375 38.578125 
Q 46.234375 41.546875 45.453125 43.265625 
Q 43.796875 46.78125 37.890625 46.78125 
Q 31.640625 46.78125 27.484375 42.203125 
Q 23.34375 37.640625 21.625 28.90625 
L 16.015625 0 
z
" id="DejaVuSerif-Italic-110"/>
      <path d="M 54.734375 41.796875 
Q 58.453125 47.515625 63.03125 50.421875 
Q 67.625 53.328125 73 53.328125 
Q 81.15625 53.328125 84.1875 48.25 
Q 85.984375 45.21875 85.984375 40.28125 
Q 85.984375 37.0625 85.203125 33.015625 
L 79.78125 5.171875 
L 87.890625 5.171875 
L 86.921875 0 
L 69.828125 0 
L 76.03125 31.984375 
Q 76.765625 35.796875 76.765625 38.53125 
Q 76.765625 41.546875 75.875 43.3125 
Q 74.21875 46.6875 68.796875 46.6875 
Q 62.796875 46.6875 58.765625 42.140625 
Q 54.734375 37.59375 53.03125 28.90625 
L 47.40625 0 
L 38.421875 0 
L 44.734375 32.328125 
Q 45.40625 35.984375 45.40625 38.625 
Q 45.40625 41.65625 44.53125 43.359375 
Q 42.828125 46.6875 37.40625 46.6875 
Q 31.390625 46.6875 27.359375 42.140625 
Q 23.34375 37.59375 21.625 28.90625 
L 16.015625 0 
L 7.03125 0 
L 16.109375 46.78125 
L 7.515625 46.78125 
L 8.5 51.90625 
L 26.078125 51.90625 
L 24.3125 42.671875 
Q 27.78125 47.859375 32.171875 50.59375 
Q 36.578125 53.328125 41.453125 53.328125 
Q 47.515625 53.328125 50.96875 50.3125 
Q 54.4375 47.3125 54.734375 41.796875 
z
" id="DejaVuSerif-Italic-109"/>
     </defs>
     <g transform="translate(325.62 58.070438)scale(0.1 -0.1)">
      <use transform="translate(0 0.015625)" xlink:href="#DejaVuSerif-104"/>
      <use transform="translate(64.404297 0.015625)" xlink:href="#DejaVuSerif-97"/>
      <use transform="translate(124.023438 0.015625)" xlink:href="#DejaVuSerif-44"/>
      <use transform="translate(155.810547 0.015625)" xlink:href="#DejaVuSerif-32"/>
      <use transform="translate(187.597656 0.015625)" xlink:href="#DejaVuSerif-Italic-76"/>
      <use transform="translate(254.003906 -15.55625)scale(0.7)" xlink:href="#DejaVuSerif-Italic-68"/>
      <use transform="translate(331.687109 0.015625)" xlink:href="#DejaVuSerif-61"/>
      <use transform="translate(434.441016 0.015625)" xlink:href="#DejaVuSerif-49"/>
      <use transform="translate(498.064062 0.015625)" xlink:href="#DejaVuSerif-52"/>
      <use transform="translate(561.687109 0.015625)" xlink:href="#DejaVuSerif-48"/>
      <use transform="translate(641.114509 0.015625)" xlink:href="#DejaVuSerif-Italic-110"/>
      <use transform="translate(705.518806 0.015625)" xlink:href="#DejaVuSerif-Italic-109"/>
     </g>
    </g>
   </g>
  </g>
 </g>
 <defs>
  <clipPath id="p2f51211ff7">
   <rect height="266.112" width="357.12" x="57.6" y="41.472"/>
  </clipPath>
 </defs>
</svg>
